<?xml version="1.0" standalone="no"?>
<!DOCTYPE svg PUBLIC "-//W3C//DTD SVG 1.1//EN" "http://www.w3.org/Graphics/SVG/1.1/DTD/svg11.dtd" >
<svg xmlns="http://www.w3.org/2000/svg" xmlns:xlink="http://www.w3.org/1999/xlink" version="1.1">
<metadata>
Created by FontForge 20230101 at Mon Jun  2 03:34:18 2014
 By Unknown
KhrysBosland
</metadata>
<defs>
<font id="KBStickToThePlan" horiz-adv-x="628" >
  <font-face 
    font-family="KBStickToThePlan"
    font-weight="500"
    font-stretch="normal"
    units-per-em="1000"
    panose-1="2 0 6 3 0 0 0 0 0 0"
    ascent="800"
    descent="-200"
    x-height="610"
    cap-height="771"
    bbox="-99.2222 -248.8 914.154 810.182"
    underline-thickness="50"
    underline-position="-150"
    unicode-range="U+0020-3000"
  />
<missing-glyph horiz-adv-x="364" 
d="M66 33h199v600h-199v-600zM33 0v666h265v-666h-265z" />
    <glyph glyph-name=".notdef" horiz-adv-x="364" 
d="M66 33h199v600h-199v-600zM33 0v666h265v-666h-265z" />
    <glyph glyph-name=".null" horiz-adv-x="0" 
 />
    <glyph glyph-name="nonmarkingreturn" horiz-adv-x="333" 
 />
    <glyph glyph-name="space" unicode=" " horiz-adv-x="300" 
 />
    <glyph glyph-name="exclam" unicode="!" horiz-adv-x="323" 
d="M289 739q-7 -26 -8.5 -55t-1 -72t0.5 -60q-1 -45 -6.5 -181t-5.5 -210q0 -14 -13 -19q-1 -7 -6.5 -12.5t-12.5 -5.5q-14 -1 -43 -1.5t-45 -1.5t-39.5 -3.5t-42.5 -7.5q-8 -1 -15 3t-9 13v7v1q-3 32 -4.5 69.5t-2 61.5t1 72.5t1.5 61.5t3 72t3 63q0 6 2 107q2 65 7 108
q0 3 2 6q-2 3 -2 6q-1 8 4.5 14.5t13.5 7.5q46 2 64 1.5t62 -3.5t60 -4q14 -1 18 -14q8 -2 12 -9t2 -15zM267 55q3 -37 -7 -111q-2 -11 -12 -15q-6 -8 -16 -8q-23 0 -74 -4t-77 -4q-8 0 -14 6t-6 14v1q-2 4 -2 8q-1 19 -6 51l-3 21q-7 12 -4 26q-1 4 -1 7v6v4q0 8 6 14t14 6
q30 0 88.5 -1.5t88.5 -1.5q3 0 6 -1q8 -1 13 -6t6 -12z" />
    <glyph glyph-name="quotedbl" unicode="&#x22;" horiz-adv-x="426" 
d="M217 655q-10 -44 -14.5 -65.5t-10.5 -58.5t-5 -66.5t8 -57.5q2 -8 -2 -15t-12 -9q-3 -1 -5 -1q-4 -2 -8 -2q-5 0 -26.5 -1.5t-33.5 -1.5q-3 -1 -7 -1q-3 0 -6 1q-20 -1 -37 0q-8 0 -13.5 6.5t-5.5 14.5t6 13q0 189 16 281q2 8 8.5 12.5t15.5 3.5q1 0 1 -1q5 1 9 1
q12 -2 57 -12q31 -7 51 -7q8 0 14 -6t6 -14t-6 -14zM385 657q10 -8 8 -20q-27 -117 -27 -244q0 -8 -6 -14t-14 -6q-4 -2 -9 -2q-15 0 -46 -0.5t-46 -0.5q-8 0 -13.5 5.5t-6.5 12.5q-3 5 -3 11q0 47 7 139t7 136q0 8 6 14t14 6q4 0 7 -1q1 0 3 -1q18 -5 50 -11q41 -7 55 -11
q11 -2 14 -13z" />
    <glyph glyph-name="numbersign" unicode="#" horiz-adv-x="792" 
d="M455 361q-40 7 -77 7q-2 0 -5 1q-4 -16 -12 -44t-10 -36q6 0 24 -2t28 -3q13 -1 23 -2q14 42 29 79zM456 691q-19 -60 -31 -130q12 -1 23 -3l18 59q13 44 18 75q2 8 8.5 12.5t15.5 3.5q3 -1 7 -3q24 0 74 -2.5t76 -2.5q8 0 14 -6t6 -14q0 -3 -1 -6q2 -6 0 -11
q-2 -8 -11 -47t-16 -60q25 2 58 2q10 0 16 -9q8 -5 9 -13q3 -20 8 -93q4 -58 11 -89q1 -8 -3.5 -15t-12.5 -9q-11 -2 -18 6q-14 2 -30 2h-5q-3 0 -6 1h-25q-32 1 -51 3q-1 -11 -5 -27l-4 -20h4q19 0 30 -1q38 -2 62 -17q7 -4 8.5 -12.5t-2.5 -15.5q0 -106 3 -143
q1 -9 -4.5 -15t-13.5 -7h-3q-5 -4 -11 -4l-93 -4q-1 -98 -9 -164q-1 -7 -6.5 -12t-12.5 -5q-5 -13 -19 -13q-10 0 -21.5 -0.5t-25.5 -0.5t-22 -1q-43 -1 -72 2q-8 1 -13.5 7.5t-4.5 14.5q0 3 2 7q0 3 -2.5 84t1.5 88q-17 5 -41 5q-11 -118 -4 -166q1 -9 -4 -15.5t-13 -7.5
q-7 -1 -12 2h-4q-104 0 -160 -5q-9 -1 -15 4.5t-7 13.5v4q-2 5 -2 11q1 16 15 166h-46q-10 0 -16 8q-15 5 -14 21q2 18 3 70q0 47 4 75q1 8 7.5 13t15.5 4q1 0 3 -1q3 1 6 1h58q2 9 5 30q2 13 4 22h-65q-8 0 -14 6t-6 14q0 4 1 7v4v153q0 8 6 14q4 12 16 14q69 10 121 7
q2 6 22 79q17 62 38 96q8 14 24 9q7 5 15 4q11 -2 41.5 -7t50 -7.5t38.5 -2.5q8 0 14 -6t6 -14q0 -11 -9 -17z" />
    <glyph glyph-name="dollar" unicode="$" horiz-adv-x="649" 
d="M425 458q-13 -8 -24 3q-14 14 -20 17q-3 2 -7 3q1 -15 3 -32q109 -51 151 -92q34 -32 57 -77t29 -92q15 -113 -64 -182q-69 -60 -185 -80l-2 -18q-2 -13 -15 -16q-3 -1 -5 -2q-94 -14 -156 -8q-8 1 -13.5 7.5t-4.5 14.5q0 2 1 4l-1 1q-4 22 -5 38q-6 4 -26.5 16.5
t-31.5 20.5l-28 19q-17 12 -29 23q-70 61 -70 135v3q-2 14 10 21q18 10 76 41q47 25 72 41q7 4 15 2.5t13 -8.5q6 -9 1 -19l14 -25q0 4 1 16q0 30 1 47q-33 14 -59.5 28.5t-54.5 35.5t-48.5 49.5t-31.5 61.5q-13 46 -2.5 94.5t40.5 91.5q25 37 60 62.5t75 29.5q-1 4 -2 7
q0 1 -1 24q-1 14 12 19q5 5 12 6q74 7 151 21q9 1 15.5 -3.5t8.5 -12.5v-6q5 -4 6 -11q3 -23 6 -57q93 -41 133 -113q2 -3 2 -5q3 -1 5 -2q7 -3 10.5 -10.5t-0.5 -15.5q-19 -45 -85 -111q-4 -4 -9 -5zM201 476q0 14 1 42t1 41q-16 -8 -26 -23q-18 -29 2 -48q7 -6 22 -12z
M345 124q51 8 72 31q17 18 11 41q-5 23 -27.5 42t-54.5 24q0 -31 -1 -138z" />
    <glyph glyph-name="percent" unicode="%" horiz-adv-x="903" 
d="M699 161q-19 -6 -29.5 -23t-11.5 -35q0 -14 6 -19t20 1q21 9 29.5 26.5t4.5 32.5q-3 13 -13 16q-3 1 -6 1zM146 569q-24 -5 -36 -24q-15 -25 10 -40q14 -9 26.5 -4t18.5 20q11 28 -19 48zM163 730q49 -17 90 -62q30 -32 46.5 -70t14.5 -84q-3 -46 -33 -86
q-26 -35 -55 -55q-28 -20 -68 -24q-91 -9 -141 48q-45 49 -43 129q2 50 23.5 99t58.5 81q2 4 4 6q17 19 43 24q17 8 36 13q8 1 15 -3t9 -13v-3zM667 323q-1 3 -1 6q0 8 6.5 13.5t14.5 5.5q106 -5 154 -74q41 -59 26 -147q-13 -81 -69 -143q-56 -64 -131 -68q-88 -5 -134 65
q-39 60 -28 146q8 70 50.5 126t111.5 70zM492 733q63 -18 146 -66q12 -7 10 -21q1 -6 -1 -12l-52 -122q-37 -85 -62 -149t-45 -125l-59 -196q-37 -117 -70 -194q-1 -3 -4 -6q-3 -7 -10 -10t-15 -1q-30 11 -87 29l-69 23q-8 3 -12 10t-1 15q1 3 3 6q99 381 221 650l19 46
q15 35 27 59t25 45q5 7 13 9q7 15 23 10z" />
    <glyph glyph-name="ampersand" unicode="&#x26;" horiz-adv-x="678" 
d="M255 180q-15 19 -24 37q-16 -11 -24.5 -23t-8 -19t1.5 -11q3 -6 14 -5q18 3 41 21zM283 530q23 16 31 30q3 5 3.5 8t-0.5 4v1q-2 2 -6.5 3t-12 -2t-13.5 -13q-5 -8 -3 -26q0 -2 1 -5zM92 405q-40 72 -41.5 148.5t41 142t124.5 98.5q10 4 22 6.5t25.5 3.5t22 1.5t24.5 0
t20 -0.5q145 0 194 -103q42 -88 1 -223q-24 -80 -72 -126l55 -34q40 -24 63 -36q5 -3 7 -7q7 -4 8.5 -12t-2.5 -15l-29 -44l34 -34q27 -28 45 -43q5 -4 7 -12q9 -12 0 -24q-44 -56 -116 -105q-6 -15 -22 -13q-34 5 -72 46q-39 -33 -93 -54q-55 -20 -113 -25q-68 -6 -129 12
q-60 18 -99 62q-54 60 -45 161q8 92 59 156q25 30 81 73z" />
    <glyph glyph-name="quotesingle" unicode="'" horiz-adv-x="217" 
d="M159 663q0 -10 -0.5 -46t0 -49.5t1.5 -44t3.5 -48.5t7.5 -42t12 -44q3 -8 -1 -15.5t-11 -10.5q-5 -2 -11 -1q-2 -1 -4 -1q-16 -4 -35 -7t-42.5 -5t-33.5 -3q-5 -1 -11 2q-7 0 -13 5.5t-6 13.5q-1 29 -7.5 98t-7.5 101.5t2 102.5q-1 3 -1 7q0 8 6 14t14 6q20 0 60.5 -1
t60.5 -1q8 0 14 -6t6 -14q0 -6 -3 -11z" />
    <glyph glyph-name="parenleft" unicode="(" horiz-adv-x="382" 
d="M276 795l69 -82q5 -6 4 -13.5t-6 -12.5q-1 -1 -3 -1q-1 -7 -6 -10q-56 -41 -97.5 -113t-61.5 -151.5t-18.5 -162.5t27.5 -147q5 -13 12 -26l12 -24q5 -9 15 -23l15 -21q5 -6 18 -22l17 -20l19 -22q16 -17 19 -21q8 0 14 -6q4 -6 3.5 -13.5t-5.5 -12.5q-15 -13 -30 -30
t-33 -40.5t-29 -36.5q-1 -1 -2 -1q-1 -4 -4 -7q-5 -6 -12.5 -6t-12.5 5q-4 4 -18 17l-20 18l-18 17q-11 11 -19.5 21t-15.5 20q-72 95 -106.5 246t-11.5 267l8 31q4 16 9.5 33.5t9.5 29.5l13 32l11 29l14 30q9 23 11 29q23 55 73 117q56 69 103 91q10 5 18 -1q9 0 15 -7z
" />
    <glyph glyph-name="parenright" unicode=")" horiz-adv-x="331" 
d="M134 779q60 -103 96 -189.5t55.5 -181.5t10.5 -194q-8 -98 -44 -207q-29 -88 -63 -145q-42 -71 -93 -99l-4 -6q-8 -8 -19 -4l-2 -1q-7 -2 -14 1t-9 10t0 13l-26 29q-27 32 -42 46q-5 6 -5 13t5 13l4 2q1 3 2 5q100 114 128 256q29 139 -17 285l-21 71q-17 56 -25.5 79
t-26 62t-38.5 69q-3 2 -6 6q-3 6 -1 13.5t8 11.5q76 44 122 62q7 2 14 -1t10 -9q2 -5 1 -10z" />
    <glyph glyph-name="asterisk" unicode="*" horiz-adv-x="411" 
d="M100 276q-17 7 -35 17t-44.5 27t-30.5 20q-5 2 -7 7q-12 9 -5 23q18 32 64 107q-44 10 -46 11q-4 -1 -9 -1q-7 1 -11.5 7t-3.5 14q3 19 10.5 39.5t19.5 48.5l15 34v3q2 7 8 11t14 3q8 -2 25 -4q2 18 2 79q0 4 2 8q-1 3 -1 7q1 7 7 12t13 4q24 -3 69.5 -4.5t50.5 -1.5
t9 -3q12 -4 12 -17q0 -28 7 -72q20 7 63 27q3 2 6 2q3 2 7 3q8 1 14 -3.5t7 -11.5q3 -21 20 -67q17 -45 22 -69q4 -5 4 -11q0 -7 -5.5 -12.5t-12.5 -5.5t-13 -0.5t-13 -2.5l-10 -2q-5 -1 -12 -4l-11 -3q-3 -1 -12 -4.5t-12 -4.5q34 -28 53 -55q4 -1 6 -4q5 -5 5 -12.5
t-6 -12.5q-9 -9 -57 -46q-34 -26 -48 -46q-4 -5 -11 -7q-14 -8 -23 5q-9 12 -26 31l-12 14q-6 -10 -16 -30l-16 -30l-1 -1q0 -3 -1 -6q-3 -6 -10 -9t-14 -1z" />
    <glyph glyph-name="plus" unicode="+" horiz-adv-x="536" 
d="M-6 314q30 3 83 0q57 -3 60 -3v183q0 6 3 10q-1 3 -1 5q0 8 5.5 14.5t13.5 6.5q95 4 198 -5q8 -1 13.5 -7.5t4.5 -14.5t-8 -14q4 -27 4 -57.5t-2 -69.5t-2 -55q14 -1 40 -4q65 -8 69 -8q8 -1 13 -7q14 -4 14 -19q0 -13 1 -50.5t0.5 -64.5t-4.5 -53q-2 -13 -15 -16
q-6 -8 -16 -8q-52 0 -108 7q1 -9 6 -70q5 -57 5 -92q0 -8 -5 -13q0 -8 -5.5 -13t-12.5 -6q-35 -3 -85 -3q-12 0 -39.5 0.5t-42.5 0.5q-5 0 -9 2q-8 0 -13.5 6t-5.5 14q0 112 -7 191q-19 0 -66.5 -1t-73.5 -1q-7 0 -13 5q-10 4 -12 14q-5 30 -6 84t-4 77q-1 9 5 16
q0 8 5.5 13t12.5 6z" />
    <glyph glyph-name="comma" unicode="," horiz-adv-x="255" 
d="M50 125q17 0 35.5 6t29.5 11.5t36 19.5q4 2 8 2h1q7 2 13.5 -1.5t8.5 -10.5q5 -16 14 -46l12 -47q5 -16 9.5 -38.5t5.5 -40.5q2 -79 -62 -158q0 -4 -2 -9q-3 -6 -10 -8.5t-14 0.5q-8 4 -29.5 13.5t-33 15t-29 15t-32.5 18.5q-4 2 -6 6q-9 4 -11 13q-1 8 3 14t11 8
q44 9 50 75q3 30 -4 61q-6 30 -18 48q-3 4 -3 9q-1 3 -1 6q0 7 5.5 12.5t12.5 5.5z" />
    <glyph glyph-name="hyphen" unicode="-" horiz-adv-x="390" 
d="M9 394q71 11 157 8.5t158 -17.5h1q9 1 15 -4l2 -1q8 -2 12 -9t2 -15q-1 -6 -6 -10q6 -76 -16 -163q-3 -13 -16 -15q-6 -10 -18 -9q-25 1 -132 0q-77 -1 -123 2q-5 -5 -12 -6q-8 -1 -14.5 4.5t-7.5 13.5q-1 14 -6.5 82.5t-10.5 104.5v5l-2 6q-1 8 4 15t13 8z" />
    <glyph glyph-name="period" unicode="." horiz-adv-x="202" 
d="M163 91q6 -6 6 -14q0 -105 -1 -129q0 -7 -5.5 -12t-13.5 -5q-2 0 -5 1q-2 -1 -5 -1q-16 0 -48.5 -1t-48.5 -1q-7 0 -12.5 5.5t-5.5 12.5v1v1v132q0 4 1 7q0 7 5.5 12t12.5 5q83 0 106 -3q10 -2 14 -11z" />
    <glyph glyph-name="slash" unicode="/" horiz-adv-x="469" 
d="M295 791q22 -6 44 -17t53.5 -33t35.5 -24q6 -4 7.5 -11t-2.5 -13q-6 -38 -23.5 -81t-41 -92t-32.5 -73q-67 -168 -158 -372q-8 -20 -23 -65q-15 -46 -24 -66q2 -5 2 -10q-1 -8 -6.5 -13t-12.5 -4q-20 2 -44 8t-40.5 11.5t-43.5 15.5l-36 14q-6 2 -9 8q-13 5 -11 18
q6 42 30 95l39 85q46 119 72 174q12 25 24.5 55.5t20.5 52.5l22 58l20 55q52 141 106 219q4 6 11.5 7.5t13.5 -2.5h6z" />
    <glyph glyph-name="zero" unicode="0" horiz-adv-x="724" 
d="M471 776q56 -14 99 -61q56 -61 100 -197q26 -81 20.5 -184.5t-41.5 -201.5q-38 -105 -107 -176q-68 -72 -163 -89q-105 -18 -205.5 29.5t-148.5 142.5q-34 68 -36 164.5t23 184.5q24 95 70 176q45 81 102 129q70 58 162 75q4 6 12 8q51 11 95 4q6 0 13 -2q2 -1 5 -2z
M385 516q-5 2 -9 3q-35 -2 -67 -34q-41 -45 -62 -126q-21 -80 -10 -154q11 -76 51 -106q30 -23 68 6q37 27 53 70q36 96 36 186q0 110 -60 155z" />
    <glyph glyph-name="one" unicode="1" horiz-adv-x="386" 
d="M348 697q5 -28 5.5 -59.5t-1 -72t-1.5 -55.5q0 -93 -7 -278t-7 -278q0 -5 -2 -10q1 -8 -3.5 -15t-12.5 -9q-30 -6 -68 -7.5t-68 -0.5t-64 0q-8 0 -14.5 5.5t-6.5 13.5q0 6 3 12q0 133 5 350q1 43 1 127q0 96 3.5 161.5t11.5 128.5q1 9 10 14q5 12 18 12q28 0 91 -9
q56 -8 85 -8q7 0 13 -5t7 -12q1 -2 2 -5z" />
    <glyph glyph-name="two" unicode="2" horiz-adv-x="739" 
d="M446 154q122 6 242 -12q15 -2 17 -18q4 -37 0 -94q-4 -72 -4 -89q0 -8 -6 -14t-14 -6q-3 -1 -6 -1q-243 0 -373 -8q-23 -1 -68.5 -5t-82 -6t-69.5 -2q-8 0 -13.5 5t-6.5 12v1q-55 95 -64 157q-1 9 4 15.5t13 7.5h4q1 1 2 3l46 39l73 61l73 59q64 54 101 90q44 43 53 63
q16 44 14.5 69.5t-16.5 39.5q-10 9 -24 12t-37 -1t-50 -18q-39 -20 -84 -90q-5 -8 -15 -9q-13 -6 -23 3l-126 122q-12 12 -3 26q-6 12 3 22q109 122 220 176q58 25 124 19t132 -37t114.5 -80t61.5 -106q11 -55 2.5 -107t-35 -101t-60 -88t-72.5 -70q-8 -6 -25 -21z" />
    <glyph glyph-name="three" unicode="3" horiz-adv-x="705" 
d="M584 351q1 0 2 -1q17 -9 36 -34q46 -59 50 -147.5t-37 -152.5q-110 -170 -313 -157q-80 5 -120 29q-34 19 -92 71q-84 75 -98 137q-1 8 3.5 15t12.5 9h6q67 57 141 74q14 3 22 -10q3 -2 5 -5q42 -48 76 -70q17 -10 33 -15q49 -5 95 22q11 9 17 18q-3 25 -11 46
q-21 13 -61 8q-15 -2 -38 -7q-3 0 -16.5 -3t-19.5 -5q-8 -1 -14.5 3t-8.5 11q-6 4 -8 11q-21 69 -60 163q-6 14 5 24q4 6 11 9l64 24q19 7 52 24.5t53 37.5q21 18 16 37q-4 18 -15 20q-15 2 -42 -10q-16 -8 -33.5 -19t-35 -24t-22.5 -16q-3 -2 -6 -2q-14 -8 -25 4
q-15 17 -55 48q-41 33 -59 55q-11 13 0 26q-6 13 4 23l56 51q21 18 57.5 42t70.5 37q59 22 119 11t109.5 -43t84.5 -83t46 -108q13 -77 -29 -145q-3 -5 -11 -14l-14 -15z" />
    <glyph glyph-name="four" unicode="4" 
d="M31 735q19 3 41.5 4.5t37 2t41.5 0t36 -0.5q8 0 13.5 -5t6.5 -12q13 -3 16 -17q15 -92 15 -283q10 1 34.5 2t37.5 1q-5 62 -5 241q0 3 1 7q-1 9 4.5 15t13.5 7q37 3 197 3q8 0 14 -6t6 -14v-1q4 -4 5 -10q13 -102 -6 -244h17q7 0 12 -4q2 1 5 1q8 0 14.5 -5.5t6.5 -13.5
q2 -30 -1 -89q-3 -64 -3 -85q0 -13 -12 -19q-6 -12 -19 -12h-27q5 -69 5 -283q0 -7 -4 -12v-1q0 -8 -6 -14t-14 -6q-29 0 -87.5 1.5t-87.5 1.5h-1q-3 -1 -6 -1q-8 0 -14 6t-6 14q0 51 -2 149t-2 144q-30 4 -66.5 5t-63.5 1t-70.5 -0.5t-65.5 -0.5q-11 0 -17 9q-10 5 -11 16
q-5 58 -5 152q0 113 -1 149q-5 124 0 176q1 8 7 13q2 15 16 18z" />
    <glyph glyph-name="five" unicode="5" 
d="M595 744v-3q0 -64 -10 -180q-1 -8 -7 -13.5t-15 -4.5q-3 0 -7 2q-195 0 -289 7q2 -34 -1 -61q80 -4 152 -37q45 -20 79 -53.5t53.5 -73t29 -85t9 -91t-9.5 -90.5q-1 -3 -3.5 -20t-6 -30.5t-9.5 -23.5q-29 -54 -79 -88t-107 -44.5t-115 -5t-110 25.5q-37 16 -65 31
t-58.5 43t-44.5 62q-6 14 6 24q1 4 4 8q70 80 119 112q7 4 14.5 2.5t12.5 -7.5q8 -1 14 -8q31 -40 88 -60q49 -18 77 7q26 24 21 67q-5 46 -48.5 77.5t-125.5 20.5q-47 -6 -97 -31q-7 -4 -15 -1t-12 10q-2 4 -2 8q-6 6 -6 14q0 80 -2.5 241.5t-2.5 241.5v2q-7 6 -7 15
q0 8 6 14t14 6q49 0 165.5 5t206 3t168.5 -16q7 -2 12 -8.5t4 -13.5z" />
    <glyph glyph-name="six" unicode="6" horiz-adv-x="689" 
d="M399 778q5 -4 9 -9q5 -8 6 -17q11 -20 25 -56l5 -12l4 -6q5 -8 6 -18q8 -19 15 -33q3 -5 2 -11l2 -6q2 -8 -2 -15t-12 -9q-52 -14 -96.5 -55.5t-74.5 -97.5q82 46 158 37t133 -62q46 -43 66 -101.5t5 -129.5t-70 -134q-76 -87 -148 -111q-76 -25 -182 3q-58 15 -102 48
q-45 33 -71 76.5t-41 97t-14 109t10 113.5q18 97 63.5 183t119.5 149.5t161 79.5q17 3 23 -13zM416 221q-63 -6 -106 -72q42 -16 71 3q30 21 35 69z" />
    <glyph glyph-name="seven" unicode="7" horiz-adv-x="703" 
d="M663 496l-159 -246q-14 -22 -53 -92q-34 -62 -57 -94l-42 -59l-50 -74q-21 -31 -39 -61q-3 -7 -11 -9l-2 -4q-5 -7 -13.5 -8t-14.5 4q-27 21 -85 49t-69 35q-7 4 -9.5 11.5t2.5 15.5q0 1 1 2q0 6 3 11q22 33 52 91q40 76 51 96l90 150q66 106 98 165q-178 24 -309 19
q-8 0 -14.5 5.5t-6.5 13.5q0 10 7 16v3v3q14 94 6 149q-1 6 2 11q-2 5 -2 10q1 8 7 13.5t15 4.5q64 -5 284 -14q179 -7 286 -21q7 -1 12 -7q6 2 11 1q8 -2 12.5 -9t3.5 -15q-5 -22 -5.5 -45.5t1.5 -55.5t2 -50q0 -6 -3 -11z" />
    <glyph glyph-name="eight" unicode="8" horiz-adv-x="690" 
d="M567 401q52 -67 81 -154q32 -95 -41 -217q-31 -52 -75 -94q-45 -44 -96 -64q-69 -26 -143.5 -21.5t-138.5 37.5q-68 35 -108.5 95t-40.5 139q0 88 22 140q36 84 99 140q-22 46 -24 102t19 101q23 52 59 87.5t75.5 51t83.5 18t84 -11.5q86 -26 139.5 -98.5t41.5 -165.5
q-4 -28 -37 -85zM341 252q-7 0 -14 -1q-33 -8 -55 -30.5t-28 -50.5q-7 -33 8 -56q16 -15 30 -23q13 -5 29 -6q35 -3 60 17t31 51q6 29 -8.5 56t-52.5 43zM310 495q-1 -3 -1 -6q1 -17 14 -27.5t31 -6.5q16 4 24 20t2.5 33t-22.5 25q-4 -1 -7 -2q-26 -8 -36 -25q-3 -5 -5 -11z
" />
    <glyph glyph-name="nine" unicode="9" horiz-adv-x="559" 
d="M255 486q2 16 6 45q-40 15 -66 4q-22 -10 -29 -36q-7 -24 5 -43q10 -17 33 -14q31 3 49 41q1 1 2 3zM287 -37q5 56 -1 150q-7 115 -8 132q-86 -31 -156.5 -12t-119.5 78q-51 62 -59.5 145t33.5 169q36 69 81 96q86 53 218 42q42 2 75 -4q23 -1 68 -8q58 -9 83 -9
q8 0 14 -6t6 -14q0 -7 -4 -12q4 -27 7 -55t2.5 -63t-0.5 -53.5t-2.5 -61.5t-2.5 -53q-2 -43 1 -223q2 -142 -6 -226q-1 -8 -8 -14q-1 -7 -7 -11.5t-14 -3.5q-32 3 -84 1q-73 -4 -87 -4q-5 -2 -11 -2q-8 1 -13.5 7t-4.5 15z" />
    <glyph glyph-name="colon" unicode=":" horiz-adv-x="265" 
d="M178 84v-4q0 -21 -0.5 -61.5t-0.5 -61.5q0 -6 -4 -11q-5 -10 -16 -10q-8 0 -29.5 -0.5t-38.5 -0.5t-32 2q-8 1 -12.5 7t-3.5 13q0 2 1 3q-1 5 -1 9q6 37 6 116q-1 3 -1 6q0 7 5.5 12.5t12.5 5.5q16 0 48 -1.5t48 -1.5q7 0 12.5 -5.5t5.5 -12.5v-4zM228 452q0 -79 -3 -113
q-1 -7 -6.5 -11.5t-12.5 -4.5q-4 -2 -8 -3q-75 -8 -126 2q-7 2 -11 8t-3 14l2 4v2q0 90 3 121q1 7 6.5 12t13.5 4q5 -1 9 -4q19 0 59.5 -1t62.5 -1q7 0 12.5 -5.5t5.5 -12.5q0 -6 -4 -11z" />
    <glyph glyph-name="semicolon" unicode=";" horiz-adv-x="268" 
d="M188 465q5 -5 5 -12q5 -101 9 -133q1 -7 -3.5 -13t-12.5 -7h-6q-5 -3 -11 -3q-17 1 -50.5 3.5t-49.5 3.5q-8 0 -13 7q-10 5 -10 16q0 74 -8 120q-2 13 10 19q3 12 15 13q21 2 107 2q7 0 12 -5t6 -11zM84 127q12 4 56 20q37 13 61 17q12 2 19 -9q15 -5 12 -21
q-3 -15 0 -43q4 -37 3 -52q-5 -96 -101 -207q-5 -5 -12.5 -5.5t-13.5 3.5l-2 2q-13 10 -40 25q-31 18 -44 27q-10 7 -8 19q-5 13 6 21q70 52 58 171q-5 4 -6 10q-2 7 1.5 13.5t10.5 8.5z" />
    <glyph glyph-name="less" unicode="&#x3c;" horiz-adv-x="688" 
d="M654 131q-25 -103 -33 -161q-1 -5 -4 -9q-2 -7 -8.5 -10.5t-13.5 -1.5q-40 10 -138 32q-89 19 -139 35l-159 49q-93 28 -159 41q-7 2 -11 8t-3 14q1 4 4 7q-5 6 -4 13q0 4 3.5 35.5t3 33.5t-0.5 33q-1 8 4 13.5t12 6.5h4q96 65 288 175q38 21 108 70q74 50 111 72
q13 7 23 -4q3 -1 5 -3q21 -19 49 -56q31 -41 42 -54q3 -2 4 -6q1 -1 3 -2q4 -6 3.5 -13.5t-5.5 -12.5q-57 -50 -141 -108.5t-159 -100.5q16 -4 37 -10q74 -22 83 -24l166 -39q2 -1 3 -2q5 2 9 0q8 -1 11.5 -7.5t1.5 -13.5z" />
    <glyph glyph-name="equal" unicode="=" horiz-adv-x="644" 
d="M599 381q3 -4 3 -9q0 -2 4.5 -51t2.5 -75q2 -4 2 -8q0 -7 -5.5 -12.5t-12.5 -5.5h-3q-20 0 -119 4q-74 3 -119 1q-11 0 -61 -3t-71 -3.5t-60.5 -1t-71.5 1.5t-62 6h-1h-6q-7 1 -12 7t-4 13q2 18 6 73q2 42 6 69q-1 3 -1 6q0 7 5.5 12.5t12.5 5.5q279 0 400 -5
q10 0 50 -2.5t49 -2t48 1.5q8 1 13.5 -4t6.5 -12v-6zM608 151q3 -51 -3 -79q4 -4 5 -10q1 -8 -4 -13.5t-12 -6.5q-114 -12 -333 -18t-250 -7q-8 0 -13.5 5t-5.5 12q0 6 3 11q-1 3 -1 7q2 20 2 120q0 7 5.5 12.5t12.5 5.5h1q225 0 414 -9q21 -1 81 0q54 1 85 -2q7 -1 12 -7
t4 -13q-1 -5 -3 -8z" />
    <glyph glyph-name="greater" unicode="&#x3e;" horiz-adv-x="798" 
d="M175 648q21 -12 59 -28q45 -20 62 -28q169 -84 263 -127q24 -10 97 -38q63 -23 99 -42q7 -4 9 -11t-1 -13q0 -1 -1 -2q0 -133 3 -170q1 -7 -4 -12.5t-13 -6.5q-9 -1 -15 7q-71 -28 -209 -74.5t-202 -71.5q-29 -11 -108 -47q-70 -32 -111 -47q-7 -2 -13.5 1t-9.5 10
q-1 2 -1 5q-2 2 -4 5q-49 94 -52 145q0 6 3 11q1 8 7 14q137 100 357 185q-119 55 -339 143q-7 3 -9.5 10t-0.5 14q1 2 3 5q-3 7 1 14q45 95 79 149q4 6 11 7.5t14 -2.5q4 -2 6 -7q9 8 20 2z" />
    <glyph glyph-name="question" unicode="?" horiz-adv-x="651" 
d="M171 400q-10 4 -35 13l-40 15q-14 5 -34.5 15t-37.5 20q-4 3 -7 8q-6 -1 -12 2q-7 4 -10 12v1v1l-1 1v1v1v1v1v1v1v1l1 1v1v1l1 2q2 5 8 16q16 35 25.5 54t28.5 51.5t35.5 53t41 43.5t50.5 38l14 6q7 3 13.5 5.5t15 4.5t13.5 3.5t15 3t14 2t14.5 1.5t13.5 1t14 1t13 1
q134 10 206 -40q81 -57 87 -194q2 -35 -5 -66.5t-16.5 -52.5t-29 -44.5t-32 -35.5t-37.5 -33q-29 -26 -43.5 -40.5t-34 -40.5t-27.5 -56t-8 -67q0 -8 -6 -14t-14 -6h-1h-3q-60 3 -177 3q-8 0 -14 6t-6 14q0 7 4 13q-14 169 62 261q8 10 22 23l32 31l30 26q26 24 39 42
q15 19 16 31q1 7 -1 16q-3 9 -6 11q-5 1 -23 -1q-52 -6 -86 -55q-12 -18 -29 -51q-21 -43 -29 -56zM390 27v-86q0 -8 -6 -14q1 -2 1 -4q0 -8 -5.5 -14.5t-13.5 -6.5q-11 -1 -175 -17q-8 -1 -14.5 4.5t-7.5 13.5q0 5 2 10q-1 1 -1 2q-2 18 -8 50.5t-7 38.5q-1 5 1 10
q-1 4 -1 8q0 8 6 14t14 6q30 0 94 5t96 5q10 0 16 -9q9 -6 9 -16z" />
    <glyph glyph-name="at" unicode="@" horiz-adv-x="936" 
d="M703 70q-16 -5 -69 -20q-4 -9 -14 -9q-29 0 -87 -1t-87 -1q-7 0 -11.5 4.5t-4.5 11.5q0 3 1 6q-1 3 -1 6v1q-80 -9 -133 42q-52 51 -55 133q-3 51 16 96t63.5 77t106.5 35q4 7 12 9q27 5 55.5 6t71.5 0t53 -1q7 0 11.5 -4.5t4.5 -11.5q0 -8 10 -100q5 -46 2 -76
q41 24 44 92q2 39 -9 79q-11 39 -31 62q-31 39 -72.5 57t-83 15t-85.5 -22q-64 -29 -114 -84.5t-68 -118.5q-35 -130 10 -214q46 -87 172 -114q98 -21 175 -3q56 12 117 48zM499 256q-2 6 -5 19q-17 4 -24 5q-17 3 -22 0q-10 -3 -12 -14t5 -22q7 -9 19 -9q17 1 39 21z
M811 -51q-51 -47 -131 -75t-171 -34q-89 -7 -172.5 8.5t-142.5 50.5q-47 29 -85 85q-37 56 -63 128q-25 71 -34 137q-8 68 2 123q17 88 71 167q32 47 81.5 89t100.5 66q53 25 95 40q43 16 94.5 26t103 4.5t100.5 -27.5q46 -21 103.5 -67t79.5 -85q30 -55 45.5 -116.5
t15 -124t-27 -121.5t-76.5 -102q-4 -4 -8 -7q3 -2 5 -5q9 -12 0 -24q30 -68 23 -116q-1 -5 -4 -9q0 -6 -5 -11z" />
    <glyph glyph-name="A" unicode="A" horiz-adv-x="781" 
d="M367 459l-23 -54l-4 -10l-17 -42q34 0 76 2q-16 43 -32 104zM-15 58q12 12 23 30.5t18 33t18 39.5q10 24 16 38q33 72 115 292q67 180 120 278v1q3 8 8 15q2 2 5 3q8 7 19 9q6 3 13 2q70 -15 131 -49q1 -1 3 -2q8 -4 15 -9q12 -8 8 -23q7 -41 22 -85.5t38 -101.5t34 -87
q74 -215 142 -383q10 -2 14 -12q3 -8 -0.5 -15.5t-11.5 -10.5q-26 -9 -84 -37q-56 -27 -90 -38q-8 -3 -15.5 1t-9.5 12q-1 4 -1 8q-61 135 -92 189q-27 -3 -56.5 -4t-66.5 -2t-56 -1q-11 -24 -41 -100q-29 -74 -47 -112q-4 -7 -11.5 -10t-15.5 1q-1 1 -2 1q-7 -1 -13 3
q-12 7 -41 22t-52 28q-23 14 -42 30q-6 5 -7 14q-3 1 -6 3q-6 6 -6 14.5t5 14.5z" />
    <glyph glyph-name="B" unicode="B" horiz-adv-x="730" 
d="M277 216q1 -7 4 -52q60 -16 125 -14q39 1 52 11q4 2 4 6q0 7 -6 19q-17 30 -81 33q-23 2 -60 0q-37 -3 -38 -3zM273 527q5 -71 5 -77q32 7 52 20t21 24q0 9 -15 18q-22 12 -63 15zM184 743q27 -6 78 -1q69 8 90 7q124 -5 198 -80q83 -83 55 -207q-4 -17 -18 -44
q-8 -16 -10 -23q50 -28 81 -82q32 -54 38 -116q7 -68 -18 -129t-83 -96q-42 -26 -104 -35t-115.5 -5t-109.5 16v-3q-1 -13 -14 -17q-5 -10 -17 -10q-10 0 -47.5 -1.5t-64.5 0t-51 5.5q-12 3 -15 15q-6 5 -7 13q-2 23 -3.5 48t-2 44.5t-0.5 48.5v44q0 15 1 48.5t1.5 44.5
t2 48.5t1.5 45.5q9 235 -11 364q0 5 1 9q-7 4 -10 11q-3 8 0.5 15.5t11.5 10.5l22 8q8 7 19 9h9q9 2 17 4q12 6 26 3q27 1 45 -12q2 0 4 -1z" />
    <glyph glyph-name="C" unicode="C" horiz-adv-x="806" 
d="M703 122q9 -7 17 -12q7 -5 8.5 -13t-2.5 -15q-2 -3 -5 -5q0 -6 -4 -12q-66 -93 -126 -131q-63 -39 -147.5 -40.5t-158.5 27.5q-79 27 -145.5 76t-101.5 109q-55 92 -48 241q6 121 60 221t141 156q60 38 127 50.5t142 -4.5q76 -17 148 -66q62 -42 100 -80q38 -39 63 -97
q4 -8 0.5 -15.5t-10.5 -10.5q-1 -1 -3 -1q-3 -7 -9 -10q-23 -11 -49 -27q-3 -3 -6 -5t-8 -4l-11 -7q-58 -36 -75 -46q-7 -4 -15 -2t-12 9q-5 8 -2 17q-22 44 -65 70.5t-93 30.5q-51 4 -96 -18t-69 -69q-19 -36 -14 -101q5 -58 24 -107q16 -41 56.5 -70t88.5 -36
q48 -6 84.5 14t49.5 67q2 8 9 12t15 2q7 -2 11 -7q1 -1 2 -1q29 -15 77 -51l42 -32q5 -3 10 -7z" />
    <glyph glyph-name="D" unicode="D" horiz-adv-x="797" 
d="M255 762h57q27 0 55 -1.5t54 -4t53 -9.5t52.5 -16.5t52 -24.5t50.5 -34q72 -57 107.5 -155.5t26.5 -203t-61 -179.5q-46 -68 -106 -122q-74 -67 -247 -96q-141 -24 -265 -14q-8 1 -13.5 7t-4.5 15q1 5 4 10l-8 221q-4 100 -9 213q-2 39 1 177q2 105 -3 166q-6 4 -9 10
q-3 8 0.5 15.5t11.5 10.5q37 13 90 26q34 9 56 11q13 2 23 1q15 -1 23 -8q7 -6 9 -15zM460 478q-37 42 -99 60q-51 15 -80 15q3 -23 3.5 -49.5t-0.5 -59.5t-1 -46v-252q86 22 128 55q50 38 72.5 89t15.5 101q0 5 -2 11q-12 39 -37 76z" />
    <glyph glyph-name="E" unicode="E" horiz-adv-x="673" 
d="M586 588l-1 -1h1v1zM620 751q1 -2 1 -5q5 -51 5 -180q0 -8 -6 -14t-14 -6h-3h-5q-63 6 -183 6q-24 0 -80.5 -1.5t-86.5 -1.5q1 -52 0 -72q94 0 146 -5q8 -1 14 -7q12 -6 12 -19q0 -80 4 -163q10 -6 10 -18q0 -8 -6 -14t-14 -6q-31 0 -85 -5q-56 -4 -72 -5q0 -50 -2 -75
q33 0 95 -2t74 -2q109 -2 180 4q11 1 18 -7q7 -5 9 -13q9 -33 8 -87q-1 -63 1 -80q1 -7 -3.5 -13.5t-11.5 -7.5q-5 -6 -13 -7q-35 -3 -74 -5l-66 -5q-29 -2 -76.5 -3t-67.5 -1.5t-76 -1t-67 -0.5h-75h-70q-14 0 -19 13q-13 5 -13 19q0 60 2 125t6 151q2 73 4 125
q7 247 -8 397q-1 8 4.5 14.5t13.5 7.5h5q6 8 16 8q31 0 101 0.5t122 0.5q48 0 102 -2q32 -1 113 -8q70 -5 111 -5q8 0 14 -6t6 -14v-4z" />
    <glyph glyph-name="F" unicode="F" horiz-adv-x="674" 
d="M567 782q7 3 15 3h6l10 2q8 3 15.5 -1t9.5 -12q0 -1 1 -2q10 -5 11 -16q11 -115 2 -179q-1 -6 -6 -11q-3 -15 -19 -15q-60 0 -175.5 1t-170.5 1v-23h138q8 0 14 -6t6 -14q0 -7 -4 -12q0 -89 12 -166q1 -8 -3.5 -14.5t-12.5 -8.5q-6 -8 -16 -8q-29 0 -82 -2t-72 -3
q0 -29 4 -149q4 -109 1 -165q0 -5 -2 -9v-4q0 -8 -6 -14t-14 -6q-21 0 -99 -5q-64 -5 -104 -1q-8 1 -13.5 7.5t-4.5 14.5q-2 4 -2 9q0 67 10 177q12 135 14 174q2 55 3 209q1 145 6 211q1 7 6.5 12.5t13.5 5.5q11 14 29 14q5 0 9 -1q42 5 93.5 7t83.5 2.5t97 0t85 -0.5
q18 0 47.5 -2t41.5 -2q10 0 20 1h2z" />
    <glyph glyph-name="G" unicode="G" horiz-adv-x="779" 
d="M400 402q166 7 169 7q64 2 101 3h34h11q3 -1 5 -1q5 0 10 -4q10 -7 14 -23q3 -9 3 -23q0 -7 -1 -19t-1 -13q0 -49 -3.5 -88t-14.5 -84.5t-29.5 -81t-51.5 -68.5t-78 -54q-5 -2 -9 -2q-52 -24 -95 -35t-97 -11q-173 0 -262 97q-80 87 -97 261q-9 90 13 180t69.5 165
t125.5 127.5t173 64.5q113 14 168 -7q14 -6 27.5 -13t28.5 -18l24 -16q9 -7 26 -22l22 -20q5 -4 23 -21.5t20 -18.5q6 -6 6 -14.5t-5 -14.5q-3 -3 -7 -5l-3 -3q-63 -76 -118 -118q-6 -5 -14.5 -4t-13.5 7.5t-4 15.5q-34 27 -76.5 30.5t-82.5 -12.5t-79 -49q-61 -53 -91 -123
q-29 -72 -11 -132q14 -44 50 -73t78.5 -34.5t77 15t49.5 69.5q3 9 5 21q1 6 2 10q-2 1 -4 1q-10 2 -27 0q-11 0 -32 -3t-26 -3q-17 -1 -20 15q-2 4 -2 8q0 18 -2 54q-3 38 -3 57q0 15 14 19q5 4 11 4z" />
    <glyph glyph-name="H" unicode="H" horiz-adv-x="712" 
d="M143 781h64q8 0 14 -6t6 -14q0 -3 -1 -6q1 -1 1 -3q9 -60 2 -169q-7 -105 -4 -144q83 11 209 22q4 91 11 273q0 8 6.5 13.5t14.5 5.5h1q4 2 9 2q129 0 188 -15q8 -2 12 -9t2 -15q-1 -5 -5 -9q0 -24 1 -71.5t0.5 -85t-1.5 -71.5q-1 -29 -6.5 -127t-6.5 -143.5t1.5 -121
t12.5 -135.5q1 -9 -5 -16q-5 -12 -18 -12q-30 0 -87.5 -1t-66.5 -2q-6 -2 -13 -2q-6 0 -13 2h-17q-8 0 -14 6t-6 14q0 3 1 6q-2 4 -2 8q0 48 -2.5 138.5t-2.5 131.5q-84 -9 -196 -23q0 -103 22 -247q1 -8 -4 -15t-13 -8q-6 -1 -11 2q-4 -2 -8 -2q-112 0 -174 -3
q-8 0 -14.5 5.5t-6.5 13.5q0 4 1 8q-3 5 -4 10q-15 113 -15.5 258t6.5 257q1 23 -4 136q-3 88 7 142q2 8 8.5 12.5t14.5 3.5q5 6 14 6h58q11 5 23 4q6 -1 11 -4z" />
    <glyph glyph-name="I" unicode="I" horiz-adv-x="686" 
d="M617 767q2 1 4 1q8 0 14.5 -5.5t6.5 -13.5q8 -171 11 -199q1 -8 -4.5 -14.5t-13.5 -7.5h-4q-5 -3 -11 -3q-41 0 -179 -7q-4 -50 -4.5 -109t1.5 -100.5t6.5 -112t5.5 -105.5q12 -1 74 -4q59 -3 95 -8q8 -1 12.5 -7t4.5 -13q2 -4 3 -8q4 -31 6 -80q3 -59 5 -76
q1 -8 -4.5 -14.5t-13.5 -7.5h-1q-5 -3 -11 -3q-52 0 -267 -5t-267 0q-11 0 -17 11q-14 4 -14 19q0 27 -2.5 80t-2.5 79q0 8 6 14t14 6h2q4 2 9 3q104 10 129 11q1 156 14 441v2q-14 0 -55.5 -2t-72 -1.5t-57.5 4.5q-8 1 -13 8t-4 15q1 4 3 8v1q6 60 2 162v2l-2 6
q-1 9 4 15.5t13 7.5q87 11 175 14q89 3 222 0t173 -3q3 0 5 -1z" />
    <glyph glyph-name="J" unicode="J" horiz-adv-x="804" 
d="M243 763q74 12 260 10q87 -1 151 -7q74 -6 102 -18q14 -6 12 -21q3 -5 3 -12q-3 -57 -17 -129l-2 -8l-3 -16v-6q-1 -8 -7.5 -13.5t-14.5 -4.5q-62 6 -110 5q17 -192 8 -321q-16 -227 -105 -312q-37 -35 -96 -50.5t-114 -14.5q-112 3 -184 50.5t-106 128.5q-31 81 -30 169
t28 183q2 8 9.5 12.5t14.5 1.5q4 -1 6 -3q4 1 7 1q28 -3 81 -14q54 -11 76 -13q8 -1 13.5 -7.5t4.5 -14.5q0 -2 -1 -4q2 -6 0 -12q-14 -35 -14 -98t16 -107q16 -43 39 -47q30 -4 79 50q52 59 51 214q-1 103 -24 222q-101 1 -145 -5q-9 -1 -15.5 4t-7.5 13q-1 6 2 11
q-1 3 -1 6q0 12 -1.5 37t-1.5 37q0 50 13 80q2 6 8 9q4 12 16 14z" />
    <glyph glyph-name="K" unicode="K" horiz-adv-x="737" 
d="M248 755q1 -3 1 -6q0 -13 0.5 -45t0.5 -50.5t-1 -46t-4 -50.5l32 28q40 35 55 50q106 110 164 160q6 6 14.5 5t13.5 -7q1 -1 2 -3q2 0 3 -1q61 -40 127 -128q12 -16 -4 -28q-1 -1 -3 -2l-4 -6l-88 -85l-111 -104q-47 -44 -95 -80q39 -23 105 -82.5t71 -64.5
q23 -19 74 -55q53 -38 76 -56q4 -3 6 -7q6 0 11 -3q7 -4 9 -12t-2 -15q-17 -30 -56 -83t-55 -78q-4 -7 -12 -9t-15 2q-2 1 -4 3q-7 1 -11 7q-25 32 -160 137q-60 47 -105 77q-23 15 -38 24q1 -144 -8 -204q-2 -8 -8.5 -13t-14.5 -4q-2 1 -3 1h-2q-126 0 -182 5
q-8 1 -13.5 7.5t-4.5 14.5q1 6 5 11v2q0 92 11 383q9 238 3 381q0 9 6 15q2 14 15 17q59 16 180 28q8 1 14.5 -4.5t7.5 -13.5q1 -7 -3 -12z" />
    <glyph glyph-name="L" unicode="L" horiz-adv-x="742" 
d="M685 154h1q6 -5 7 -13q16 -123 16 -176q0 -12 -10 -17q-7 -8 -17 -7l-26 2q-8 -1 -15 1q-84 6 -266 -4q-211 -11 -312 -3q-8 1 -13.5 7t-4.5 15q0 3 2 7q0 127 -1 381.5t-1 381.5q0 6 4 12q-1 1 -1 2q-1 8 4 15t13 8q27 4 85 1q50 -2 75 3q9 1 15.5 -3.5t8.5 -12.5v-4
q4 -4 6 -10q6 -32 6.5 -72t-1.5 -84q-1 -44 0 -68q8 -193 8 -336q64 0 196.5 -3t200.5 -3q8 0 14 -6t6 -14z" />
    <glyph glyph-name="M" unicode="M" horiz-adv-x="892" 
d="M852 719q4 -28 5 -62t0.5 -57.5t-2 -63.5t-1.5 -56q-3 -143 -3 -514q8 -6 8 -16q0 -8 -6 -14t-14 -6q-1 0 -96 2q-56 2 -93 -2q-8 -1 -14.5 4.5t-7.5 13.5v3q-2 4 -2 9q0 31 -2 97t-2 104.5t2 104.5q-52 -92 -94 -181q-2 -4 -6 -7q-2 -9 -11 -14q-52 -27 -101 -76
q-5 -6 -13 -6t-14 5q-12 0 -18 9q-17 26 -39 71l-36 69l-34 54q20 -133 18 -201q12 -5 12 -18q0 -8 -6 -14t-14 -6q-34 0 -111 -11q-76 -12 -118 -10q-8 0 -13.5 6.5t-5.5 14.5v3v3q0 77 3.5 224t3.5 168q4 234 -9 389q-1 11 7 17q0 8 5.5 13.5t13.5 5.5q141 7 170 7
q3 0 6 -1q14 4 22 -9q14 -22 28 -47l24 -46q10 -19 25 -51.5t22 -46.5t23.5 -52.5t19.5 -46.5t21.5 -52.5t20.5 -48.5l28 54q28 52 47 81l4 5q31 58 109 177l14 27q1 2 3 4v3q1 8 7.5 13.5t14.5 4.5q25 -2 85 -2q57 1 90 -3q10 -2 15 -11q8 -5 9 -14z" />
    <glyph glyph-name="N" unicode="N" horiz-adv-x="763" 
d="M230 738q2 -1 3 -3q52 -63 137 -210q65 -112 100 -162q0 9 -2 42q-5 62 -4 97q0 12 6 119q4 71 2 116q-1 14 13 20q6 8 16 8q110 0 206 -21q10 -3 14 -12q3 -5 3 -11q-2 -53 -3.5 -116.5t-1.5 -106.5t0.5 -119.5t0.5 -110.5q0 -25 -0.5 -84t-0.5 -91.5t2.5 -80.5t8.5 -87
q1 -8 -4 -15t-13 -8q-4 0 -8 1q-6 -5 -13 -5q-14 0 -74 -5q-41 -3 -67 -1q-13 -6 -23 4q-64 69 -156 214q-84 132 -114 172l7 -76q6 -64 7.5 -89t1.5 -73t-4 -85q0 -1 -1 -2q1 -2 1 -3q1 -8 -4.5 -14.5t-13.5 -7.5q-32 -3 -97.5 -7t-99.5 -7q-8 -1 -14.5 4.5t-7.5 13.5t4 14
v2q0 89 -3.5 252t-4 252.5t4.5 252.5q0 8 6 14v1q-1 8 4 15t13 8q49 7 156 2q11 -1 17 -11z" />
    <glyph glyph-name="O" unicode="O" horiz-adv-x="920" 
d="M573 456q-66 85 -161 75q-6 -1 -12 3q-68 -14 -117.5 -76.5t-58.5 -140.5q-12 -95 44 -154q65 -68 206 -59q91 6 132 75q37 63 21 152q-3 17 -8 33q-18 52 -46 92zM350 776q4 3 9 4q20 2 39 2.5t38.5 -2t34.5 -5t36 -9.5l33 -10q12 -3 34 -11q7 -3 11 -4q79 -27 153 -85
q73 -59 114 -130q16 -28 24 -66q9 -37 10 -61.5t1 -65.5q0 -155 -43 -236q-55 -100 -153 -162t-212 -67q-74 -3 -141.5 6t-137.5 42q-69 32 -115 87q-79 96 -103 237q-25 141 26 257q24 50 66 99t89 85q102 78 187 95z" />
    <glyph glyph-name="P" unicode="P" horiz-adv-x="735" 
d="M401 433q20 7 31 19q15 16 14 45q0 7 -8 18t-17 17q-18 12 -49.5 18.5t-53.5 7t-61 0.5q2 -23 5.5 -68.5t5.5 -67.5h44q60 7 89 11zM261 196q0 -14 4 -126q3 -84 1 -136q-1 -15 -15 -18q-5 -12 -18 -12h-175q-8 0 -14 6t-6 14q0 5 2 9q-6 64 -6 186q0 22 1.5 86t1.5 99
q0 27 -3.5 213.5t1.5 212.5q0 6 3 10v2q-1 8 4.5 14.5t13.5 7.5q23 2 73.5 7.5t82.5 8.5t80.5 5.5t85.5 -0.5t79.5 -9.5t80 -22.5t70.5 -39q53 -37 76 -97.5t17 -127.5q-5 -64 -35.5 -122.5t-79.5 -94.5q-33 -24 -72.5 -39.5t-88.5 -22.5t-79.5 -9.5t-84.5 -4.5z" />
    <glyph glyph-name="Q" unicode="Q" horiz-adv-x="873" 
d="M768 100q39 -48 51 -96q1 -2 1 -4q5 -6 4 -14t-7 -13q-63 -52 -149 -100q-16 -8 -26 6q-4 2 -6 5q-20 24 -57 84q-34 -19 -80 -24.5t-93 0.5t-95 22q-78 25 -142 67.5t-92 91.5q-30 57 -41 135q-10 77 1 153q12 81 41 150q31 70 78 115q48 45 111 71.5t129 31.5
q138 10 242 -52t157 -171q51 -100 45 -225t-72 -233zM353 267q9 8 38.5 37t51 47.5t43.5 34.5q9 6 18 3q8 1 14 -4q51 -39 86 -82q2 32 -1 53t-16 44q-37 66 -80 101q-34 19 -65 33q-62 14 -116 -35q-55 -50 -66.5 -127t35.5 -140q40 -50 141 -71q-10 10 -74 66q-4 3 -6 8
q-2 1 -4 3q-5 6 -5 14.5t6 14.5z" />
    <glyph glyph-name="R" unicode="R" horiz-adv-x="726" 
d="M220 531q3 -41 4 -63q60 7 96 17q34 10 52 22q16 12 17 25q1 21 -17 23q-10 2 -20.5 2t-22 -1t-20.5 -2.5t-23 -5.5l-20 -5l-24 -6q-15 -4 -22 -6zM16 750q31 6 81 11q58 5 72 7q3 2 6 3q8 3 15.5 -1t9.5 -12l2 -7q122 27 172 29q112 4 179 -55q52 -46 73 -129
q22 -84 10 -127q-18 -67 -82 -115q-65 -47 -141 -66q30 -23 80.5 -72.5t55.5 -53.5q7 -7 44 -38.5t59 -55t38 -51.5q4 -7 2 -15t-9 -12q-2 -2 -5 -2q-86 -76 -116 -124q-5 -7 -13 -8.5t-15 3t-9 12.5q-3 1 -6 3q-16 12 -38 34t-37 40l-46 51l-43 48q-52 58 -86 88
q-26 23 -46 34q7 -86 12 -222q0 -14 -12 -19q-2 -16 -18 -18q-28 -3 -92 -8t-89 -9q-8 -1 -15 4t-8 13t4 15q-2 22 -2.5 49.5t0.5 46t2.5 50t2.5 45.5q5 122 -5 408q-1 22 0.5 62t0 69.5t-8.5 55.5q-3 11 5 19q0 16 16 20z" />
    <glyph glyph-name="S" unicode="S" horiz-adv-x="678" 
d="M236 211q10 -15 27 -44l27 -44q31 -48 63 -60q16 -7 37 1q8 2 11 6l2 4q0 3 -1 6q-2 8 -21 26q-7 7 -15 14q-64 43 -113 88l-11 9q-74 59 -119 141t-51 174q-9 128 67 198q70 65 198 65q4 0 19.5 0.5t26 0.5t25 -2.5t25.5 -7.5q25 -11 48.5 -29.5t39.5 -35.5t36 -44.5
t30 -44.5l28 -48q18 -31 25 -42q2 -2 2 -5q1 -2 2 -3q3 -8 -0.5 -15.5t-11.5 -10.5q-26 -9 -76 -34q-52 -27 -80 -37q-8 -3 -15.5 0.5t-10.5 11.5q-1 3 -1 6q-1 2 -2 5q-6 28 -33.5 55.5t-58.5 39.5q-28 11 -41 3q-13 -9 -8 -43q3 -23 26 -46q9 -8 25 -21l26 -22
q3 -3 23.5 -20.5t27 -24t25 -23t28.5 -26.5l25 -26q15 -15 28 -30l23 -28q98 -128 73 -245q-7 -33 -28.5 -67t-49.5 -50q-55 -33 -149 -44q-100 -13 -156 12q-146 65 -196 260q-7 3 -11 9q-4 8 -1.5 16t9.5 12q29 15 73 34q69 29 72 30q5 3 12 2q15 8 25 -6z" />
    <glyph glyph-name="T" unicode="T" horiz-adv-x="747" 
d="M38 787q39 0 112 -6l109 -9q146 -10 407 -10q8 0 14 -6t6 -14v-1q7 -5 8 -13q4 -25 9.5 -75t9.5 -75v-3q1 -2 1 -4q1 -8 -4.5 -14.5t-13.5 -7.5q-121 -12 -257 -13v-6q14 -308 19 -438q0 -11 1 -92q0 -54 5 -87q1 -9 -4 -15.5t-13 -7.5h-3q-110 -10 -186 -10q-8 0 -14 6
t-6 14q0 5 3 10q-2 3 -2 7q-12 251 -16 389q-1 39 0 130q1 76 0 108q-57 0 -198 13q-8 1 -13.5 7.5t-4.5 14.5q0 4 2 8v5q1 12 2 84q1 54 4 87q1 5 4 10q4 14 19 14z" />
    <glyph glyph-name="U" unicode="U" horiz-adv-x="781" 
d="M96 773q6 -1 33 -3t40 -3.5t35 -6t38 -10.5q8 -3 11 -10q13 -6 11 -20q-40 -316 32 -531q7 -21 25.5 -43t42.5 -37q52 -32 92 -9q22 14 36 42q10 20 12 57q1 10 2 33q0 22 1 34q24 281 24 460q0 4 1 7v2q0 8 5.5 14.5t13.5 6.5q107 5 174 -5q8 -1 13 -8t4 -15q0 -2 -1 -3
q1 -2 1 -4q5 -54 4 -138v-135q0 -8 1 -27q0 -54 1 -108t-6 -112.5t-20 -111t-41.5 -103t-71.5 -89.5q-28 -26 -63 -36t-81 -14q-105 -9 -197.5 33t-151.5 129q-42 60 -67 185q-30 140 -30 276t39 277q4 14 18 15q6 12 20 11z" />
    <glyph glyph-name="V" unicode="V" horiz-adv-x="810" 
d="M410 -98q-15 -1 -111 -14q-8 -1 -14 3q-16 -6 -25 10q-83 158 -164 412q-43 118 -66 212q-27 90 -49 153q-3 7 0.5 14.5t11.5 10.5q3 7 10 9q27 12 63 17.5t57.5 6t61.5 0.5q8 0 14 -6t6 -14q0 -2 -1 -5q12 -21 22 -47t15 -44l14 -49q9 -32 12 -44q41 -142 76 -225l6 13
q19 34 25 48l61 139q24 52 64 126t80 130q2 4 5 6q0 2 1 4q3 8 10.5 11.5t15.5 0.5q47 -17 154 -68q13 -6 11 -20q1 -4 1 -8q-2 -33 -43 -115l-32 -62q-17 -32 -23 -49q-8 -18 -35 -87l-39 -95l-36 -86q-25 -58 -43 -94l-42 -82q-25 -48 -50 -88q-2 -4 -5 -6
q-1 -7 -6.5 -12.5t-12.5 -5.5z" />
    <glyph glyph-name="W" unicode="W" horiz-adv-x="947" 
d="M331 11q-12 0 -24.5 -1.5t-27.5 -5t-24.5 -5.5t-28.5 -7l-27 -8q-8 -2 -15 2t-9 12q-1 2 -1 4q-5 4 -8 10q-23 58 -45 130.5t-35 122t-34 138.5l-31 125q-6 21 -15.5 64.5t-18 74.5t-19.5 59q-4 8 -0.5 15.5t10.5 10.5q4 2 9 2q3 3 7 5q116 43 188 34q7 -1 12 -6
q12 -5 12 -18q0 -18 3 -34.5t10.5 -44t9.5 -37.5q6 -23 34 -160q16 -78 29 -126l18 23q15 20 20 26l19 24q13 16 21 25l20 21l23 24q7 6 16 5q11 10 23 2q52 -31 106 -85q30 -30 51 -57q8 88 30 196.5t44 163.5q1 3 3 5q-1 8 4.5 14.5t13.5 7.5q71 6 192 -42q8 -1 13.5 -7.5
t4.5 -14.5q-2 -21 -12 -56q-10 -37 -12 -51q-15 -92 -36 -185t-59 -236l-48 -183q0 -3 -2 -6q0 -4 -1 -8q-4 -7 -11.5 -10.5t-15.5 -0.5q-12 6 -54 24.5t-68.5 27.5t-53.5 14q-8 2 -12.5 9t-3.5 15l1 1l-1 1q-23 68 -70 143l-47 -71q-37 -57 -55 -95q-1 -2 -2 -3
q-1 -8 -7 -12.5t-13 -4.5z" />
    <glyph glyph-name="X" unicode="X" horiz-adv-x="840" 
d="M216 753q22 -34 97 -120q56 -65 82 -107q35 51 100 128t98 106q2 2 4 3q0 3 1 7q2 8 9.5 12t15.5 1q48 -14 95 -48t84 -75q5 -6 4.5 -14t-6.5 -14q-5 -5 -13 -5q-1 -1 -2 -3q-91 -84 -140 -141q-33 -47 -74 -98q-16 -25 -29 -51l122 -162q39 -53 63 -94q30 -51 35 -77
q0 -4 -1 -9q5 -17 -11 -23q-28 -12 -75 -41q-55 -35 -78 -46q-7 -4 -15 -1t-12 10q-2 4 -2 9q-33 43 -94 137l-79 120q-31 -43 -85 -109l-102 -129q-12 -16 -28 -4q-4 3 -6 6l-6 4q-19 19 -59 44q-54 34 -67 44q-7 5 -8 13t4 15q2 3 5 5q1 1 1 2q68 144 204 311
q-38 56 -102 134q-83 101 -115 121q-7 4 -9 12t2 15t11 9q1 3 3 5q10 9 30 29l34 32q14 13 33.5 29t37.5 28q7 4 15 2.5t13 -8.5q1 -3 2 -5q8 -2 13 -9z" />
    <glyph glyph-name="Y" unicode="Y" horiz-adv-x="773" 
d="M187 785q8 -1 14 -7q82 -102 159 -288q134 178 193 280q4 7 12 9t15 -2q5 -3 8 -7q7 -5 32 -18l38 -20q12 -7 31 -19.5t34 -24.5q2 -1 5 -2q7 -3 10.5 -10.5t-0.5 -15.5q-16 -38 -40 -80l-40 -68q-16 -27 -53 -76l-48 -64q-11 -14 -58.5 -71t-50.5 -62v-4
q0 -11 0.5 -88.5t0 -106t-3.5 -84.5q-3 -55 -8 -100q-1 -9 -7.5 -14t-14.5 -4q-7 1 -11 5q-32 3 -90.5 6t-86.5 5q-8 1 -13.5 7t-4.5 15q0 4 2 8v5q1 14 3 69l4 78q1 23 2 66.5t1 78.5t-2 70q0 4 1 7q-12 18 -23 41t-23.5 52.5t-16.5 40.5q-76 168 -146 284q-6 10 0 20
q2 4 5 7q72 60 150 87q13 4 21 -5z" />
    <glyph glyph-name="Z" unicode="Z" horiz-adv-x="815" 
d="M83 788q75 -3 213 -11l192 -11q39 -2 118 -2t118 -2q13 -1 18 -13q9 -6 9 -17q0 -20 1.5 -56t2.5 -50q1 -1 2 -1q6 -6 6 -14.5t-5 -14.5q-38 -40 -92 -103q-3 -12 -12 -20l-29 -28l-54 -63q-35 -43 -55 -65q-32 -36 -82 -85l-77 -90l1 -3q160 6 399 6q8 0 14 -6t6 -14v-4
v-2q5 -54 5 -152q0 -6 -3 -11q0 -7 -5 -13t-13 -7q-52 -5 -145 -3q-114 2 -142 1q-43 -1 -208 -13q-134 -10 -210 -10q-6 0 -11 4q-4 -1 -7 -1q-9 1 -14 7.5t-4 14.5q2 18 3 39.5t1 36.5t-0.5 42t-0.5 39q-1 0 -1 1q-5 7 -4 15t8 13q29 22 62 66q52 69 60 78l130 156
q64 76 113 125q-57 -1 -149 4q-147 8 -182 8q-5 0 -10 3q0 -1 -5 -0.5t-6 0.5q-8 2 -12 9.5t-1 15.5q7 25 11.5 53t8.5 65t7 57q2 10 11 15q6 11 19 11z" />
    <glyph glyph-name="bracketleft" unicode="[" horiz-adv-x="382" 
d="M42 759q124 20 268 -1q6 11 19 9q7 -1 11.5 -7t3.5 -14q-3 -19 -3.5 -38.5t0.5 -50t1 -41.5q8 -6 7 -16q-1 -7 -7 -12t-13 -4q-70 8 -134 0q0 -376 -10 -573q26 2 66.5 2t68.5 -8q3 -1 6 -3q15 -4 13 -19q-4 -30 -4 -101v-2q4 -4 4 -10q0 -8 -5 -13.5t-12 -5.5
q-228 -12 -302 -12q-5 0 -9 2q-12 6 -11 19q6 54 4 182q-2 129 2 186q13 185 13 502q0 10 9 15q2 12 14 14z" />
    <glyph glyph-name="backslash" unicode="\" horiz-adv-x="488" 
d="M-82 696q14 11 34.5 19.5t35.5 13t40 10.5t32 8t13.5 -1t8.5 -10q22 -33 42 -72.5t42 -89.5q21 -45 35 -74l240 -489q5 -1 9 -5q5 -5 5 -12.5t-6 -12.5q-14 -14 -34.5 -27.5t-35.5 -21.5l-39 -22q-25 -13 -35 -19q-6 -3 -13 -2q-12 -5 -21 6q-19 22 -34 52t-30.5 66
t-23.5 53q-57 111 -82 168q-13 32 -30 65l-43 81l-36 65q-70 133 -91 226q-1 7 2.5 13t10.5 8q2 3 4 4z" />
    <glyph glyph-name="bracketright" unicode="]" horiz-adv-x="341" 
d="M290 686q-3 -59 4 -182q7 -128 6 -185q-4 -256 8 -502q1 -11 -9 -16q-2 -11 -13 -14q-14 -3 -30 -5q-2 -1 -4 -1h-1q-118 -17 -233 -5q-5 -11 -18 -10q-7 1 -12 6.5t-4 13.5q3 29 -3 130q-7 6 -7 15q0 7 5.5 12.5t12.5 5.5q97 0 134 6q-1 13 -4 69l-4 74q-1 19 -3 70
l-3 75q-1 25 -2 69.5t-1 75.5t0.5 68.5t2.5 71.5q-6 0 -25 -2t-28.5 -2.5t-25.5 -1t-29.5 1t-25.5 3.5q-4 1 -7 4q-14 4 -13 19q3 29 -1 100v3q-3 4 -4 9q-1 7 4 13t12 7q152 17 300 25q9 0 15 -6t6 -15z" />
    <glyph glyph-name="asciicircum" unicode="^" horiz-adv-x="590" 
d="M545 269q-25 -8 -67 -33q-49 -28 -71 -38q-7 -2 -14 0q-13 -2 -19 10q-81 153 -115 237q-7 -20 -17 -43l-16 -40q-8 -17 -21 -42l-19 -38l-22 -42q-16 -28 -20 -37q1 -6 -1 -11q-3 -7 -10 -9.5t-14 -0.5q-18 8 -81 29q-52 18 -83 33q-10 5 -10 17q-3 5 -2 12
q8 36 24 78.5t29.5 71t37.5 75.5l35 67q9 18 25.5 57.5t32 71t34.5 57.5v1q0 7 5.5 12.5t12.5 5.5h117q7 0 13 -5q9 -1 14 -9q25 -43 93 -187q4 -8 58.5 -109t71.5 -157q7 -3 10 -11q2 -7 -1 -14t-10 -9z" />
    <glyph glyph-name="underscore" unicode="_" horiz-adv-x="775" 
d="M-65 -170l18 120l66 -10h65l70 -5l60 -2l65 -3h60h62l75 -1h61h61l78 4h66v-122h-62l-78 -4h-65h-61l-75 1h-62h-62l-67 3l-62 2l-68 5h-71z" />
    <glyph glyph-name="grave" unicode="`" horiz-adv-x="257" 
d="M92 752q1 -1 3 -2q3 -4 24 -28l29 -33l24 -28q16 -19 27 -35l22 -31q4 -6 2.5 -13.5t-7.5 -11.5h-1q-2 -4 -6 -6q-14 -9 -60 -42q-39 -28 -66 -41q-7 -3 -13 -1q-12 -4 -20 5q-9 11 -49 68q-28 39 -52 56q-7 6 -7 15q0 7 3 12q43 58 122 119q6 5 13.5 4t11.5 -7z" />
    <glyph glyph-name="a" unicode="a" horiz-adv-x="632" 
d="M402 681q131 -6 181 -17q9 -2 13 -9t3 -15q-1 -5 -4 -8q0 -34 -8 -402q-1 -46 0 -84t-0.5 -86t-7.5 -86q-2 -9 -9 -14q-1 -8 -8 -13t-15 -4q-24 3 -49.5 4t-63.5 0t-52 -1h-3h-2q-8 0 -14.5 5.5t-6.5 13.5q-1 20 -3 32q-87 -10 -170 14q-81 24 -129 72q-44 44 -68 109
t-25 135q-2 72 23 136q24 64 74 104q32 26 102 54q109 42 209 -5q3 20 3 33q0 11 10 17q4 16 20 15zM357 357q-23 20 -47.5 27t-43.5 1t-33.5 -18.5t-21.5 -28.5q-14 -36 12 -62q36 -37 130 -37q13 60 8 115q-2 1 -4 3z" />
    <glyph glyph-name="b" unicode="b" horiz-adv-x="721" 
d="M260 260q2 -61 5 -83q2 0 8 -2q72 -20 105 -15q21 3 40.5 17.5t30.5 35.5q23 45 -12 76q-29 25 -85 10q-36 -9 -92 -39zM231 -102q-91 4 -169 4q-8 0 -14 6t-6 14v3q-12 147 -7 418q6 299 1 414q0 8 5.5 14.5t13.5 6.5h4q4 2 9 2q81 0 174 -8q8 -1 13.5 -7t4.5 -14v-3
q-3 -67 -3 -246q197 63 321 -14q16 -10 29.5 -25t24.5 -37t15.5 -32.5t13.5 -34.5q47 -126 16 -228q-34 -113 -154 -170q-42 -20 -91 -26t-87.5 -3t-89.5 12v-15q0 -6 -3 -11v-1q0 -8 -6.5 -13.5t-14.5 -5.5z" />
    <glyph glyph-name="c" unicode="c" horiz-adv-x="632" 
d="M470 470l-1 -1zM405 278q62 -3 179 -52q7 -3 10.5 -10.5t-0.5 -15.5q0 -2 -1 -3q8 -8 6 -19q-6 -30 -16 -61.5t-26 -64.5t-40.5 -60t-53.5 -41q-7 -3 -15 -5l-14 -5q-6 -2 -16 -3l-14 -2q-5 0 -15.5 -0.5t-14.5 -0.5h-14h-12q-125 0 -218 63q-92 62 -123 180
q-26 100 7 205q34 106 107 177q51 49 109.5 71t128.5 8.5t133 -69.5q4 -3 15 -12.5t16 -14.5t15 -14t16 -15.5t13.5 -15.5t13.5 -17q8 -2 13 -8.5t4 -14.5t-8 -13q-16 -12 -46 -32.5t-51.5 -37t-38.5 -34.5q-8 -8 -19 -6q-9 -1 -17 5q-54 44 -108 37q-53 -7 -65 -58
q-12 -49 14 -101q11 -23 25 -35t26 -11q15 1 32.5 20.5t34.5 66.5q3 8 11 11q7 8 17 8z" />
    <glyph glyph-name="d" unicode="d" horiz-adv-x="650" 
d="M604 744q10 -71 12 -157.5t0 -145t-7.5 -162.5t-7.5 -147q-1 -27 2 -90q3 -67 3 -92q0 -10 -8 -16q0 -7 -5.5 -12.5t-12.5 -6.5q-19 -2 -82 -4q-51 -2 -79 -6q-8 -1 -14.5 4t-7.5 14v1v1q-6 22 -7 27q-67 -20 -167 -1q-147 28 -199 143q-46 101 -4 223q19 54 53.5 99.5
t82 78.5t105.5 43t124 -7q4 52 4 225q0 9 7 15q5 6 13 7q43 4 115 0q4 1 9 1t11 -2q29 -2 38 -2q8 0 13.5 -6.5t5.5 -14.5v-2q2 -4 3 -8zM371 292q-36 28 -70 18q-31 -8 -50 -39q-19 -30 -14 -58q5 -27 34 -36q32 -8 54 -4t49 22q1 71 -1 96q-1 0 -2 1z" />
    <glyph glyph-name="e" unicode="e" horiz-adv-x="618" 
d="M361 402q-1 4 -1 8q-1 1 -3 2q-29 30 -59 25q-28 -4 -63 -37q0 -1 -1 -2q30 0 68 -1q28 1 59 5zM478 216l99 -88q5 -4 6 -10q5 -12 -3 -21l-25 -29l-33 -38l-30 -30q-61 -59 -116 -73q-109 -29 -205.5 27t-131.5 164q-26 80 -9 207q17 128 64 198q42 61 116 85.5t150 8.5
t128 -63q2 -2 13 -11.5t16.5 -15t14.5 -15.5t15 -19.5t10 -19.5q25 -73 6 -217q-1 -9 -9 -14q-5 -11 -18 -11q-25 0 -159 -4q-94 -3 -148 0q1 -62 20 -86l6 -6q13 -4 41 -6q58 12 139 90q13 13 26 2q10 1 17 -5z" />
    <glyph glyph-name="f" unicode="f" horiz-adv-x="616" 
d="M335 533q-4 -5 -8 -11q-26 -35 -40 -112q7 -1 22.5 -2t24.5 -2q7 -1 12 -6.5t4 -13.5q0 -2 -1 -3q1 -2 1 -4q7 -71 7 -161q0 -7 -5.5 -12.5t-12.5 -5.5h-2q-4 -2 -9 -2t-57 -1q1 -20 10 -110q7 -81 1 -129q-1 -7 -6 -11q-3 -12 -15 -13q-19 -2 -88 -3q-52 0 -82 -7
q-7 -2 -13.5 1.5t-7.5 11.5q-1 3 -1 7q-2 3 -3 8q-5 47 -3 127q1 77 1 101q-4 -1 -4.5 -1t-1.5 -1l-14 -8q-7 -3 -14 -1t-11 8q-3 6 -2 13q-5 30 -8 89q-2 55 -6 81q-6 4 -7 11q-1 8 3.5 14t11.5 7l25 2l21 3q1 10 6 22q8 22 9 26q2 7 9.5 35.5t10.5 38.5l11 36q8 26 13 37
l14 36q10 23 18 36l22 30q13 19 26 31.5t30 26t36 24.5q39 21 86.5 26t89.5 -10q118 -43 141 -174q16 -95 -19 -227q-2 -10 -12 -12q-6 -5 -14 -4q-22 4 -45.5 4.5t-58 -0.5t-48.5 -1q-8 0 -13 6q-4 3 -5 8q-2 8 -6 50q-3 42 -8 64q-3 16 -6 25q-1 2 -3 5z" />
    <glyph glyph-name="g" unicode="g" horiz-adv-x="636" 
d="M370 475q-32 2 -47 -2q-9 -3 -27 -15t-29 -26q-11 -12 -11 -19q1 -4 14 -8q18 -6 51 -3q2 0 30 2q12 1 21 2q1 48 -2 69zM34 206q25 0 76 5q43 5 65 6q-42 16 -63 34q-60 53 -60 161q0 124 85.5 201t209.5 74q27 -1 40 -2t34.5 -8t37.5 -22h2q58 0 97 -7q8 -2 12 -8
q2 -3 3 -7q5 -1 9 -5t5 -9q4 -4 5 -9q17 -111 10 -295.5t-35 -292.5q-8 -34 -33.5 -74.5t-53.5 -62.5q-80 -60 -187.5 -52t-183.5 71q-50 43 -80.5 122.5t-22.5 144.5q1 10 10 14v3q0 7 5.5 12.5t12.5 5.5zM221 195q1 -9 5 -29l5 -31q6 -35 16 -50q9 -15 39 -21q23 -5 39 5
q14 10 24 33q13 32 17 87q-82 -9 -149 13q3 -3 4 -7z" />
    <glyph glyph-name="h" unicode="h" horiz-adv-x="665" 
d="M255 732q4 -6 4 -12q5 -93 4 -151q96 48 197 19q122 -35 155 -188q6 -29 9 -65.5t3.5 -61.5t1 -65t0.5 -54q3 -135 3 -202q0 -7 -4 -12q-4 -13 -17 -14q-38 -3 -103 -4q-68 -1 -99 -4q-9 -1 -15 4.5t-7 13.5q-1 15 12 20q0 23 2.5 81t2.5 89q2 118 -10 164q-13 47 -44 50
q-30 3 -56 -40q-28 -47 -22 -159l3 -45q2 -31 3 -50t1 -43.5t-2 -43.5q-1 -5 -5 -10q2 -4 2 -8q0 -8 -6 -14t-14 -6q-135 0 -195 -8q-9 -1 -15.5 4t-7.5 13q0 5 1 9q-1 1 -1 3q-5 63 -6.5 138.5t0.5 129.5l4 142q2 85 3 130q1 42 -1 118q-2 77 -2 107q0 8 5 13v1q0 8 6 14
t14 6t88 3q55 1 92 -2q10 -1 16 -10z" />
    <glyph glyph-name="i" unicode="i" horiz-adv-x="302" 
d="M262 540q5 -27 5.5 -59.5t0 -70.5t-0.5 -57q6 -254 -8 -399q-1 -8 -7.5 -13.5t-14.5 -4.5q-5 1 -9 3h-164q-3 -1 -6 -1t-6 1h-10q-8 0 -14 6t-6 14q0 16 16 20v565q0 15 14 19q6 9 16 9q67 3 172 3q8 0 14 -6t6 -14q0 -4 -1 -7q2 -3 3 -8zM82 778q14 -4 32.5 -6
t32.5 -1.5t37.5 1t36.5 0.5q8 0 13 -5q4 1 8 1q8 0 13.5 -6.5t5.5 -14.5q-3 -53 -3 -94q5 -4 6 -11q1 -8 -4 -15t-13 -8h-4q-2 -1 -5 -1q-38 -5 -164 -5q-12 0 -18 10q-10 6 -10 18q0 17 -1.5 52t-1.5 52q0 14 14 19v1q2 8 9.5 12t15.5 1z" />
    <glyph glyph-name="j" unicode="j" horiz-adv-x="492" 
d="M238 604q-2 3 -3 7q-2 8 2 15t12 9q75 19 185 -3q7 -2 12 -8t4 -14q5 -5 5 -13q0 -19 2.5 -145.5t2.5 -208.5q0 -120 -6 -201q-7 -100 -24 -132q-24 -47 -70 -74t-101 -33q-55 -5 -106.5 11.5t-87.5 53.5q-36 39 -62 141q-22 88 -22 151q0 17 16 20q5 4 11 5q10 1 36 5.5
t39.5 6.5t41 4t40.5 -1q10 -2 15 -10q9 -5 10 -16q1 -5 1.5 -10t0.5 -8v-3q5 -5 6 -11q0 -3 2 -20.5t5 -33.5t7 -30q6 -23 14 -31q2 -2 3 -2q0 3 1 7q3 14 5 38q5 46 5 66v415q0 33 -2 53zM325 794h40q4 0 8 -1q46 -1 59 -1q7 0 11.5 -4.5t4.5 -11.5q0 -4 -1 -7v-6
q0 -15 -3 -44q-2 -19 -3 -27q5 -4 6 -11q1 -6 -3 -11.5t-11 -6.5l-7 -1q-52 -7 -156 -7q-4 -2 -8 -2q-7 0 -11.5 4.5t-4.5 11.5q0 56 -5 92q-4 4 -5 10q-1 7 3 12t11 6q30 4 70 5h5z" />
    <glyph glyph-name="k" unicode="k" horiz-adv-x="659" 
d="M67 758q31 -5 84 -7q65 -4 88 -6q8 -1 13 -7t5 -14q5 -5 5 -13q0 -35 -2.5 -131.5t-0.5 -149.5q58 48 141 94q13 7 23 -2q8 0 13 -5q54 -47 113 -138q4 -7 2.5 -15t-8.5 -13q-6 -4 -14 -3q-114 -73 -160 -115q42 -32 121.5 -97.5t119.5 -95.5q3 -1 5 -2q4 -3 7 -7
q9 -13 0 -25q-3 -4 -8 -6q-2 -4 -17 -28l-21 -32l-18 -26q-12 -18 -23 -31t-23 -25q-6 -6 -14 -6t-14 6q-5 4 -6 11q-141 91 -223 163q4 -107 4 -111v-1q7 -6 7 -15q0 -8 -6 -14t-14 -6h-26q-7 -2 -14 -2q-2 0 -5 1q-108 -4 -154 6q-9 2 -13 9t-3 15q2 5 5 9v2q8 166 0 524
q0 20 2 139q1 82 -5 135q-2 14 12 20q2 7 8 11.5t14 3.5z" />
    <glyph glyph-name="l" unicode="l" horiz-adv-x="278" 
d="M47 752q26 10 91 8q45 -1 90 -7q8 -1 13 -7.5t4 -15.5t-9 -14q0 -25 3 -88q3 -60 2 -98q-1 -44 -3.5 -133t-3.5 -142t-1 -128.5t3 -139.5q0 -8 -5.5 -14.5t-13.5 -6.5h-2q-3 -1 -6 -1q-13 0 -27.5 -0.5t-32 -1t-27.5 -0.5q-53 -1 -89 2q-8 1 -13.5 7.5t-4.5 14.5q0 3 2 7
q0 122 4.5 367.5t4.5 368.5q0 8 5 13.5t12 6.5z" />
    <glyph glyph-name="m" unicode="m" horiz-adv-x="852" 
d="M34 603q18 2 41 3.5t37 1.5h42h36q7 0 13 -5q9 -3 11 -13q59 39 110 37q62 -3 115 -67q40 34 82.5 49.5t96.5 15.5q72 0 132 -55q61 -55 68 -154q3 -31 1 -82q-3 -77 -3 -79q0 -11 0.5 -45t0 -52.5t-1.5 -47t-4.5 -52.5t-9.5 -47v-2q1 -3 1 -7q0 -8 -6 -14t-14 -6
q-30 0 -87 6q-56 5 -83 5q-8 0 -14 6t-6 14q-3 6 -3 12q5 108 4 195q-1 71 -5 112q-3 23 -7 36q-1 4 -2 7q-1 -1 -3 -1q-7 -3 -14 -8q-44 -34 -48 -125q0 -20 1 -81q1 -52 -2 -78q-2 -13 -15 -16q-7 -7 -16 -6q-49 5 -165 5q-8 0 -14 6t-6 14q0 3 1 7v2q0 29 4 79t4 88.5
t-8 71.5q-4 15 -9 18q-6 0 -19 -12q-15 -14 -28.5 -35.5t-16.5 -33.5q-9 -39 -1 -114q11 -88 5 -127q-1 -4 -3 -8q-1 -7 -6.5 -12t-13.5 -5q-64 0 -197 6q-8 0 -13.5 6.5t-5.5 14.5q1 11 10 16q0 62 2 127t6.5 155t5.5 127q1 16 -1 57q-1 38 1 61q0 4 3 9q0 7 5 13t12 7z
" />
    <glyph glyph-name="n" unicode="n" horiz-adv-x="633" 
d="M65 573q10 5 21 8t23.5 5t21 3t23.5 1.5t21 0.5h23h19q3 0 6 -1h1q16 4 23 -10q45 25 121 27q99 2 157 -49q51 -45 67 -127q23 -114 -19 -307q-4 -15 -10 -34q-1 -4 -5 -15t-6 -17q-11 -34 -9 -56v-2q3 -6 2 -11q-1 -9 -7.5 -14t-14.5 -4q-75 9 -163 5q-14 -1 -19 12
q-9 8 -8 19q20 133 25 203q5 74 -2 114q-3 22 -9 33q-4 7 -7 7q-37 6 -56 -28q-20 -33 -25 -101q-3 -50 1 -126l5 -95q0 -16 -15 -19q-5 -6 -12 -7q-34 -5 -91 -5q-63 -1 -86 -3q-15 -1 -20 12q-7 6 -7 14q-4 43 -2.5 133t3.5 137t7 138l6 133q0 7 6 13q2 10 11 13z" />
    <glyph glyph-name="o" unicode="o" horiz-adv-x="706" 
d="M334 464q-35 -9 -58 -36t-31 -63q-9 -43 4.5 -75.5t44.5 -40.5q52 -11 85 17q32 26 38 74q6 45 -16 81t-67 43zM225 680q4 5 10 8q154 62 277 -22q53 -36 90 -94q38 -58 56 -127q14 -54 16 -110t-11.5 -110t-40 -99.5t-72.5 -80t-106 -48.5q-68 -17 -168 -4
q-109 15 -160 52q-75 55 -99.5 154.5t-1.5 206.5q21 96 76 171.5t134 102.5z" />
    <glyph glyph-name="p" unicode="p" horiz-adv-x="645" 
d="M266 283q49 0 75 11q17 7 23 17q8 12 4 31q-1 10 -10 21.5t-18 15.5q-14 7 -41 3l-27 -6l-11 -2q0 -3 2 -50q1 -26 3 -41zM154 591q2 0 31.5 4.5t34.5 5t32.5 4t36 3t33.5 0.5t36.5 -1t33 -5t36 -8.5t32.5 -13.5q17 -7 32 -17q79 -52 109 -162q23 -81 1.5 -147.5
t-70.5 -113t-117 -70.5t-140 -19q2 -10 6.5 -35t6.5 -38t5 -39t0 -39q-1 -13 -14 -17q-4 -8 -13 -10q-94 -21 -182 -21q-8 0 -14 6t-6 14q-2 4 -3 8q-18 126 -19 340q-1 250 -8 336q0 4 1 7q-2 3 -3 5q-3 8 0.5 15.5t11.5 10.5q3 1 14.5 5.5t21.5 8t19 5.5q19 3 34 -3
q13 -6 21 -19z" />
    <glyph glyph-name="q" unicode="q" horiz-adv-x="592" 
d="M305 295q-7 47 -9 90q-25 3 -40 -8t-20 -29q-5 -20 4.5 -36t32.5 -18q20 -2 26 -1q3 0 6 2zM540 -162q-35 -4 -100 -9.5t-79 -7.5q-8 -1 -14.5 4.5t-7.5 13.5q-1 7 4 14q-10 29 -14 62t-5.5 84.5t-2.5 60.5q-73 0 -120 9q-86 16 -127 64q-29 34 -48 112q-21 80 -10 159
q12 78 54 133q43 57 109 77q66 19 156 -5q5 13 19 13q40 0 71 1l20 1q6 0 11 -1l44 2q7 0 13 -4q12 -4 14 -16q5 -38 6 -99q1 -81 2 -95q24 -384 24 -546q0 -5 -2 -9q-2 -16 -17 -18z" />
    <glyph glyph-name="r" unicode="r" horiz-adv-x="565" 
d="M28 573q70 26 164 26q5 0 9 -2q16 2 21 -14l3 -8q102 54 194 -2q45 -28 75 -77t38 -108q1 -10 -5 -17q-3 -13 -16 -16q-28 -5 -75 -21q-55 -18 -77 -23q-8 -2 -15 2t-9 11q-12 13 -20 16q-8 4 -19 -4q-18 -13 -24 -49q-6 -33 -3 -87q1 -17 9 -97q6 -58 4 -81
q-1 -15 -16 -18q-3 -14 -17 -16q-100 -14 -184 -14q-8 0 -14 6t-6 14q0 6 3 10q-13 270 -14 295q-1 18 0 76q0 45 -3 73q-8 75 -8 90q-5 3 -7 9q-3 8 0.5 15.5t11.5 10.5z" />
    <glyph glyph-name="s" unicode="s" horiz-adv-x="608" 
d="M206 288q2 -2 3 -5q15 -75 69 -105q43 -10 48 -11q4 1 7 3q4 7 5 14q1 1 1 3l-2 6q-12 34 -58 60q-15 9 -46 23zM349 450q14 -7 36 -16q39 -16 46 -20q110 -64 137 -165q28 -105 -48 -210q-14 -19 -38.5 -33t-42 -19t-43.5 -11q-120 -25 -198 3q-86 31 -146 135l-20 35
q-6 11 -13.5 34.5t-7.5 43.5q0 13 13 16q2 5 6 7q30 20 76 33l8 3h2q9 5 19 5q26 7 42 12q-60 32 -88 74q-39 59 -33 149q5 64 43.5 113t97.5 75q54 25 119.5 23t117.5 -35q68 -43 118 -142l3 -3q5 -6 4 -13t-6 -11q-11 -9 -62 -54l-34 -30l-11 -9l-3 -3l-1 -1
q-1 -1 -1.5 -1t-0.5 -1l-6 -2q-11 -2 -26 6q-10 5 -23 16q-7 5 -23.5 19t-26.5 21q-28 22 -45 27q-14 4 -22 -8q-4 -7 6.5 -18.5t33.5 -24.5q6 -1 11 -4z" />
    <glyph glyph-name="t" unicode="t" horiz-adv-x="460" 
d="M345 691q1 -3 1 -6q0 -49 -5 -185h5h60q8 0 14 -6t6 -14q0 -3 -1 -6q1 -2 1 -5q0 -151 1 -171q0 -8 -5.5 -14.5t-13.5 -6.5h-2h-62q3 -41 1 -125q-2 -82 2 -123q8 -6 8 -16q0 -8 -6 -14t-14 -6q-15 0 -59.5 -1t-77.5 -0.5t-62 4.5q-8 1 -13 8t-4 15l2 6q-2 4 -2 8v246
q-28 1 -52 5q-10 2 -14 12q-5 5 -6 12q-7 78 -7 158q0 8 6 14t14 6h2q4 5 11 6q9 1 26 4l23 4q0 28 -2.5 90t-2.5 95q0 12 10 18q6 10 18 10q18 0 91 -2q61 -2 88 0q8 0 14.5 -5.5t6.5 -13.5v-1z" />
    <glyph glyph-name="u" unicode="u" horiz-adv-x="599" 
d="M61 610q75 10 157 -4q7 -2 12 -8t4 -14q6 -6 6 -14q0 -6 -1.5 -50t-2 -83t1.5 -96q3 -81 15 -121q6 -21 13 -28q3 -3 5 -2h1q1 1 3 4t4 7q7 14 14 40q12 46 23 126q5 37 22 225q1 13 14 17q5 4 11 5q88 9 176 0q8 -1 13.5 -7.5t4.5 -14.5v-2q6 -30 7.5 -74.5t0.5 -78
t-4 -86.5l-4 -70q-2 -57 1 -152q4 -127 4 -155q0 -5 -2 -9q7 -6 6 -16q-1 -8 -7 -13.5t-15 -4.5q-29 3 -60.5 3t-75.5 -0.5t-61 -0.5q-4 0 -8 2q-2 -1 -5 -1q-8 0 -14 6t-6 14v10q-44 -8 -101 4q-34 8 -55 14.5t-48 23.5t-45 42q-53 72 -57 264q-1 77 7 151t22 117q2 6 7 10
q0 7 5 13t12 7z" />
    <glyph glyph-name="v" unicode="v" horiz-adv-x="676" 
d="M331 -43q-37 -3 -107 -3q-9 0 -15 7q-7 2 -11 9q-188 312 -232 506q-1 8 3 14.5t12 8.5q3 8 10 12l79 41q48 24 83 38q8 3 15.5 -0.5t10.5 -11.5q1 -3 1 -6q0 -1 1 -1l102 -250q68 165 152 274q7 8 17 8q9 12 23 7q34 -13 94.5 -48t62.5 -36q8 -4 10.5 -12t-1.5 -15
q-1 -1 -1 -2q3 -7 -1 -15q-13 -30 -32 -66t-35 -60l-40 -64l-36 -58q-17 -28 -74 -134q-45 -83 -74 -129q-4 -13 -17 -14z" />
    <glyph glyph-name="w" unicode="w" horiz-adv-x="859" 
d="M426 48q-1 25 -16 71l-6 20q-4 -9 -10 -20l-20 -41q-10 -22 -16 -38q-2 -5 -6 -8q-4 -11 -16 -12q-24 -2 -70 -15l-56 -16q-3 -4 -7 -5q-8 -4 -15.5 -0.5t-10.5 10.5q-86 203 -134 358q-2 6 -29 82t-35 117q-1 8 3.5 14.5t11.5 8.5q1 1 2 1q35 15 91 30q34 11 62 19
q7 1 13 1l8 2q8 3 15.5 -1t9.5 -12q8 0 13.5 -5t6.5 -13q7 -58 53 -180q35 65 79 137q2 4 6 7v1q1 8 8 13t15 4q36 -6 63 -8q5 -1 9 -3q10 -2 15 -11l69 -143q12 44 36 123l33 103q1 2 2 5q1 8 8 13t15 4q84 -12 181 -60q8 -4 10 -12q9 -6 9 -17q0 -24 -5.5 -52t-11.5 -46
l-17 -48q-12 -32 -16 -42q-4 -13 -71 -194q-43 -117 -63 -193q0 -2 -1 -4v-2q-1 -8 -8 -13t-15 -4q-66 10 -169 51q-4 2 -7 4q-15 3 -16 19z" />
    <glyph glyph-name="x" unicode="x" horiz-adv-x="624" 
d="M3 518q29 15 87 49q65 38 90 51q7 4 15 1t12 -10q3 -6 2 -12q35 -35 76 -89q71 85 113 125q7 6 17 5q10 11 23 4q58 -31 120 -101l3 -3q11 -10 12 -26q1 0 1 -1q6 -6 6 -14t-6 -14q-65 -66 -136 -161q33 -32 72 -89q65 -91 76 -104q7 -9 4 -19q-1 -10 -9 -16
q-12 -7 -37 -22l-38 -25q-14 -9 -32.5 -23t-30.5 -28q-4 -4 -10 -5q-16 -9 -26 5q-15 20 -64 78l-49 58q-40 -73 -83 -131q-1 -1 -2 -3l-1 -1q-2 -8 -9 -12t-15 -2q-33 9 -75 25q-7 1 -14 4q-4 2 -7 4l-83 34q-12 5 -13 17q-1 0 -1 1q-8 3 -11 11t1 15q17 37 42.5 80
t40.5 66l52 72q-20 23 -38.5 51.5t-39.5 65t-31 52.5q-9 2 -13 10q-4 7 -1 15t10 12z" />
    <glyph glyph-name="y" unicode="y" horiz-adv-x="604" 
d="M571 562q-7 -27 -17.5 -54t-28.5 -65t-23 -47q-2 -6 -22 -50t-24 -54l-22 -49q-17 -40 -22 -54l-21 -50q-15 -36 -21 -54l-19 -51q-12 -32 -19 -54l-16 -52q-8 -28 -15 -54q0 -3 -2 -6q-2 -8 -8.5 -12.5t-14.5 -3.5q-15 2 -32 6h-1q-80 16 -167 56q-6 2 -9 8
q-10 10 -4 22q78 187 112 275l-77 105q-24 34 -64 98.5t-61 115.5q-4 10 1 19q0 9 7 15q23 20 49 35q27 15 64.5 31t50.5 23q10 5 20 -1q13 0 18 -12q10 -24 27 -54q26 -38 53 -92l13 -27q12 28 38 71q51 85 61 106q1 3 4 5q7 13 22 9q74 -20 157 -70q11 -6 10 -19
q4 -7 3 -15z" />
    <glyph glyph-name="z" unicode="z" horiz-adv-x="647" 
d="M500 632l34 -4q11 -2 15 -12q9 -5 10 -14t8 -79q5 -46 12 -75q3 -16 -12 -22l-63 -70l-78 -84l-66 -66q136 -2 232 -15q11 -2 15 -12q6 -6 6 -14q0 -12 1 -54t0 -71t-4 -56q-1 -9 -7.5 -14t-14.5 -4q-7 1 -12 5q-34 3 -71 5q-42 -1 -73 1q-93 1 -213 -7q-10 -1 -82 -10
q-54 -7 -88 -5q-8 0 -13.5 6.5t-5.5 14.5q0 2 1 5l-1 1q-18 97 -18 156q0 12 10 18l3 3l49 60l54 67q19 23 50 57.5t59 60.5l2 3q-96 1 -166 8q-4 1 -8 3q-12 5 -12 18q0 27 9 92q8 56 5 85q-1 14 11 20q6 11 18 11q19 0 75.5 0.5t84.5 0t74.5 -1.5t85.5 -3.5t77 -6.5
q3 0 7 -1z" />
    <glyph glyph-name="braceleft" unicode="{" horiz-adv-x="484" 
d="M344 751q1 -12 2 -53t3 -64q0 -6 -3 -11v-4q-1 -7 -6.5 -12t-13.5 -4q-56 6 -79 -11q-17 -13 -19 -45q-2 -17 2 -74q4 -53 -4 -78q-3 -10 -15 -27q-9 -12 -23 -28l-21 -23l12 -11l17 -15q9 -8 10 -10q5 -6 9 -15t5.5 -15t3.5 -16t2 -12q7 -27 5 -70q0 -8 -1 -21t-1.5 -24
t-0.5 -20q0 -33 10.5 -53.5t38.5 -33.5q12 -5 25 -6.5t27 1.5t25.5 7t28.5 11q8 3 15 -1h4q7 -1 12 -6.5t4 -13.5q-2 -17 2 -38t8 -34l15 -40q6 -4 7 -11q2 -7 -2 -13.5t-11 -7.5q-106 -26 -188 -14q-114 18 -155 108q-15 30 -20 62.5t-5.5 72t-1.5 47.5q-3 38 -21 60
q-21 26 -71 44q-5 -1 -9 -1q-7 1 -11.5 7t-3.5 14q2 29 2 38.5t-3 40.5l-3 43q-1 9 7 15q4 9 14 10q19 2 26.5 3.5t18 6t16.5 12.5q15 20 18 59q1 6 2 36q1 23 3 37q16 107 88 164.5t179 54.5q2 0 5 -1h1q8 0 13.5 -5t5.5 -12z" />
    <glyph glyph-name="bar" unicode="|" horiz-adv-x="249" 
d="M2 710q46 14 161 19q9 0 15 -7q8 -6 7 -16q-2 -22 1 -62q3 -52 3 -67q0 -98 9.5 -291t9.5 -289q10 -6 8 -18q-1 -7 -7 -11.5t-14 -3.5q-33 5 -90 0q-78 -8 -98 -8q-7 0 -12.5 5.5t-5.5 12.5q0 2 1 4q-1 2 -1 4q-2 34 -1 100t0 97q-12 372 -5 510q1 10 10 15q3 5 9 6z" />
    <glyph glyph-name="braceright" unicode="}" horiz-adv-x="460" 
d="M-9 -160q6 56 6 115q0 6 4 11v4q2 7 8 11t14 3q52 -11 76 3q18 11 25 41q4 19 6 74q2 53 10 79q3 12 18 28q9 11 25 26l23 21l-11 11l-15 15q-8 9 -10 12q-4 7 -7 16t-4 15.5t-2 16t-2 11.5q-4 29 2 71q1 8 3 21t3 23.5t2 19.5q3 32 -6 53.5t-36 36.5q-15 9 -33.5 10.5
t-32.5 -1.5t-40 -10q-8 -3 -15 2h-3q-7 1 -11.5 7.5t-3.5 13.5q2 11 2 23t-1 20.5t-4 23.5t-4.5 21.5t-6.5 25.5q-5 4 -6 10q-1 8 3.5 14t11.5 7q39 6 77 7h3h8h1h1q54 0 98 -11q112 -28 145 -119q12 -33 14.5 -65t-1 -72t-3.5 -46q-1 -37 14 -60q19 -29 68 -53q5 2 10 0
q7 -1 10.5 -7.5t1.5 -14.5q-3 -13 -4.5 -29.5t-2 -27t0 -33.5t0.5 -31q0 -10 -9 -15q-5 -9 -14 -9q-29 -1 -43.5 -6.5t-26.5 -22.5t-17 -52q-1 -2 -4 -32q-3 -20 -5 -32q-25 -106 -102.5 -156.5t-183.5 -38.5q-2 0 -4 1h-2h-2q-7 1 -12 6.5t-4 13.5z" />
    <glyph glyph-name="asciitilde" unicode="~" horiz-adv-x="738" 
d="M64 99q-14 10 -58 46q-36 28 -58 43q-6 4 -7.5 11.5t2.5 13.5q0 4 2 8q34 73 70 104q41 35 114 48q76 15 125 -8q13 -6 25.5 -15.5t27 -22t19.5 -16.5q61 -48 114 -36t79 83q1 3 3 6l1 1q3 6 10 8.5t14 -0.5l33 -15l40 -18q14 -7 34 -18t36 -22q3 -3 5 -7h1q6 -4 8 -11
t-1 -14q-126 -221 -325 -171q-34 9 -92 37q-59 29 -79 36q-36 12 -61 2q-29 -12 -53 -56q1 -7 -4 -14q-4 -6 -11.5 -7t-13.5 4z" />
    <glyph glyph-name="quoteleft" unicode="&#x2018;" horiz-adv-x="327" 
d="M203 731q17 -12 32 -29t33 -43.5t22 -31.5q10 -13 -1 -25q1 -14 -12 -20q-40 -16 -63.5 -55.5t-24.5 -85.5q8 -7 7 -18q-1 -8 -7.5 -13t-15.5 -4q-16 2 -37 2.5t-32.5 0.5t-40.5 -2t-36 -2q-15 -1 -20 14q-4 5 -5 11q-9 96 37 180t131 126q10 5 20 -1q7 0 13 -4z" />
    <glyph glyph-name="quoteright" unicode="&#x2019;" horiz-adv-x="240" 
d="M184 685q60 -168 -39 -322q-5 -7 -13 -8.5t-15 2.5q-5 3 -7 9q-1 1 -3 1l-31 28q-21 20 -35 29t-31 14q-8 2 -12 9t-2 15q1 6 7 11q2 5 6 8q39 28 44 39q12 23 3 62q-9 37 -29 58q-6 7 -5 16q-1 2 -2 5q-1 8 3.5 15t12.5 9q9 1 19 4l23 7l19 5q41 10 69 9q8 0 13.5 -6.5
t5.5 -14.5q0 -2 -1 -4z" />
    <glyph glyph-name="quotedblleft" unicode="&#x201c;" horiz-adv-x="426" 
d="M217 655q-10 -44 -14.5 -65.5t-10.5 -58.5t-5 -66.5t8 -57.5q2 -8 -2 -15t-12 -9q-3 -1 -5 -1q-4 -2 -8 -2q-86 -4 -110 -3q-8 0 -13.5 6.5t-5.5 14.5t6 13q0 189 16 281q2 8 8.5 12.5t15.5 3.5q1 0 1 -1q5 1 9 1q12 -2 57 -12q31 -7 51 -7q8 0 14 -6t6 -14t-6 -14z
M385 657q10 -8 8 -20q-27 -117 -27 -244q0 -8 -6 -14t-14 -6q-4 -2 -9 -2q-15 0 -46 -0.5t-46 -0.5q-8 0 -13.5 5.5t-6.5 12.5q-3 5 -3 11q0 47 7 139t7 136q0 8 6 14t14 6q4 0 7 -1q1 0 3 -1q18 -5 50 -11q41 -7 55 -11q11 -2 14 -13z" />
    <glyph glyph-name="quotedblright" unicode="&#x201d;" horiz-adv-x="400" 
d="M207 425q9 57 8.5 126.5t-19.5 120.5q-3 8 0.5 15.5t11.5 10.5q2 0 4 1q3 2 7 3q74 14 109 17q8 1 14.5 -4.5t7.5 -13.5t-4 -14q25 -169 21 -280q0 -8 -6 -13.5t-15 -5.5h-3q-3 -1 -7 -1q-12 0 -59 4q-33 3 -52 0q-8 -1 -15 4t-8 13q-1 10 5 17zM41 398q-11 7 -10 20
q11 123 -6 245q-1 9 4 15.5t13 7.5h1q4 2 8 3q17 2 47 7l44 6q8 1 14.5 -4t8.5 -13q3 -4 4 -10q3 -35 10 -138q7 -96 12 -135q1 -9 -4 -15.5t-13 -7.5h-5h-6q-18 4 -51 5q-39 2 -56 4q-10 2 -15 10z" />
    <glyph glyph-name="uni3000" unicode="&#x3000;" horiz-adv-x="1000" 
 />
  </font>
</defs>
</svg>
